<svg width="1761" height="2282" viewBox="0 0 1761 2282" fill="none" xmlns="http://www.w3.org/2000/svg">
<path d="M29.1313 99.3249C61.3777 55.6966 128.591 11.4374 182.977 3.25989C235.639 -4.65807 269.484 39.1098 323.613 38.0655L1239.87 12.8006L1539.01 4.42476L1636.81 1.54838C1666.58 0.609045 1723.55 -3.73481 1749.51 8.13922C1760.26 22.2831 1760.2 34.5148 1760.47 51.8496C1761.26 100.915 1760.93 150.231 1760.94 199.322L1760.89 467.736L1760.94 1275.08L1760.93 1698.9L1760.94 1824.76C1760.92 1848.98 1761.45 1874.84 1759.14 1898.93C1758.03 1910.43 1752.73 1922.21 1743.14 1929.25C1729.63 1939.17 1704.07 1936.2 1687.28 1935.3C1686.84 1959.11 1686.83 1985.74 1685.12 2009.51C1684.97 2011.48 1683.68 2014.64 1682.04 2015.64C1666.61 2025.01 1656.96 2021.12 1642.37 2033.49C1642.65 2075.34 1639.83 2076.89 1613.71 2110.38C1590.23 2140.47 1570.11 2166.09 1533.44 2181.27C1531.59 2212.49 1527.71 2239.27 1503.15 2261.92C1489.99 2274.06 1466.33 2283.34 1448.67 2281.28C1419.51 2277.89 1386.04 2267.46 1357.31 2259.83L1207.98 2220.43L639.955 2070.71L356.213 1995.89C293.637 1979.55 231.044 1963.16 168.527 1946.59C150.563 1941.83 140.02 1935.73 123.642 1929.33C112.106 1924.84 90.824 1933.98 76.9623 1928.79C60.657 1922.68 42.7215 1907.76 31.9962 1894.71C18.0339 1877.73 1.55549 1855.96 0.716369 1833.48C-0.329458 1805.43 0.0772523 1776.44 0.0806043 1748.37L0.112998 1581.7L0.143175 1049.16L0.225846 464.65L0.238139 278.501C0.23367 251.469 0.283948 224.351 0.240372 197.316C0.180036 160.587 9.16118 130.176 29.1313 99.3249Z" fill="#030303"/>
<path d="M803.989 510.098C831.642 510.427 847.728 519.078 867.93 537.188C873.896 542.542 879.964 547.847 887.785 550.277C907.014 556.25 938.903 534.337 976.937 547.847C999.116 555.726 1011.89 570.756 1024.86 589.645C1029.15 595.893 1033.26 602.442 1039.53 606.938C1051.65 615.641 1089.22 609.348 1116.53 625.926C1151.67 647.259 1149.29 683.298 1164.69 693.911C1176.1 701.764 1193.4 703.083 1206.2 709.521C1231.33 722.149 1245.99 743.763 1251.14 771.13C1253.17 781.855 1253.86 793.281 1257.41 803.617C1257.55 804.011 1257.69 804.398 1257.84 804.79C1270.53 817.937 1297.9 821.163 1315.56 839.931C1344.93 871.156 1339.98 892.943 1340.85 930.597C1348.27 943.344 1362.7 950.683 1371.96 962.742C1399.41 998.473 1392.02 1021.85 1388.23 1060.18C1396.59 1076.54 1409.55 1085.78 1417.67 1104.97C1429.53 1132.93 1430.01 1163.35 1418.59 1191.67C1415.23 1200.01 1409.12 1208.32 1405.98 1216.82C1400.46 1231.78 1409.36 1242.96 1415.95 1256.01C1432.48 1288.35 1433.05 1328.33 1413.37 1359.46C1406.46 1370.39 1395.71 1382.06 1392.01 1394.36C1394.07 1406.69 1401.21 1421.75 1403.82 1435.44C1411.19 1465.88 1402.12 1504.97 1377.08 1525.64C1345.51 1551.7 1357.8 1552.62 1360.34 1589.33C1361.06 1599.44 1360.25 1609.6 1357.95 1619.48C1351.89 1644.82 1336.14 1665.89 1312.69 1677.71C1305.65 1681.27 1292.45 1686.04 1288.22 1692.28C1281.19 1702.65 1281.27 1720.35 1278.14 1733C1275.29 1744.53 1270.43 1755.48 1263.78 1765.32C1248.98 1787.42 1228.77 1802.99 1202.25 1807.52C1192.45 1809.2 1182.33 1809.23 1172.61 1811.27C1168.54 1812.12 1163.19 1813.56 1159.99 1816.36C1151.45 1823.87 1145.63 1845.21 1138.46 1855.68C1120.39 1882.07 1087.45 1899.12 1055.25 1893.07C1045.28 1891.19 1033.27 1885.74 1023.22 1887.98C1009.25 1891.1 992.547 1927.74 961.92 1936.64C908.992 1952.03 889.763 1917.56 861.896 1920.03C846.416 1921.4 833.036 1934.33 819.536 1941.17C810.585 1945.71 801.555 1948.26 791.743 1950.15C758.957 1954.48 724.573 1942.92 698.984 1922.29C689.259 1914.44 676.233 1899.93 664.085 1898.07C648.358 1895.68 634.361 1905.07 616.952 1905.2C587.172 1905.91 560.243 1889.7 543.813 1865.36C537.204 1855.56 532.101 1843.85 523.232 1835.83C499.082 1830.88 481.37 1837.09 457.147 1823.51C425.935 1806.03 418.234 1782.48 408.282 1750.46C349.063 1738.25 343.699 1713.79 333.225 1669.63C331.715 1663.26 292.688 1653.03 280.485 1631.87C262.502 1600.66 267.029 1593.7 264.963 1558.88C263.973 1551.77 229.697 1539.33 215.061 1513.05C206.394 1497.36 202.53 1479.47 203.953 1461.61C207.239 1419.65 208.83 1432.79 183.349 1403.26C178.022 1397.07 173.549 1390.2 170.051 1382.82C156.179 1353.61 156.997 1318.64 172.643 1290.36C175.463 1285.27 177.924 1279.05 179.74 1273.55C174.418 1261.92 166.444 1254.43 160.441 1243.28C142.345 1210.26 143.02 1170.15 162.217 1137.77C166.352 1130.91 178.723 1115.79 178.464 1108.69C177.357 1088.08 166.976 1070.31 166.334 1049.07C165.29 1014.47 177.752 992.652 203.234 970.316C214.983 960.018 211.17 944.623 210.194 930.125C208.154 899.825 217.906 866.576 244.299 848.91C250.326 844.802 267.965 836.666 270.405 830.959C281.734 804.469 273.033 783.851 294.802 757.448C316.978 730.55 329.779 739.342 355.909 725.82C362.113 722.611 366.532 700.85 370.482 691.77C374.031 683.499 378.992 675.909 385.144 669.34C410.111 642.923 427.381 653.747 455.034 641.189C458.348 639.684 466.325 618.169 469.777 611.571C473.477 604.334 478.128 597.624 483.608 591.621C499.472 574.575 521.793 567.161 544.801 568C556.541 568.428 567.489 570.51 579.464 569.969L581.071 569.886C581.315 569.732 581.558 569.576 581.804 569.424C597.063 560.058 607.412 544.42 623.672 536.167C676.077 509.569 705.813 549.285 726.951 544.033C734.427 542.176 740.087 537.481 746.051 532.906C764.75 518.562 780.304 511.602 803.989 510.098Z" fill="#FFD12D"/>
<path d="M798.102 532.251C825.909 529.428 841.738 541.888 861.159 559.17C867.249 564.584 873.316 569.843 881.182 572.484C906.054 580.829 935.395 556.529 970.736 568.31C1001.53 578.575 1004.32 608.479 1027.32 624.708C1049.37 640.259 1081.74 630.181 1106.58 645.089C1135.8 662.627 1128.79 694.511 1150.06 711.386C1164.31 722.707 1185.98 721.944 1201.98 731.62C1231.37 749.382 1227.92 773.242 1235 801.922C1242.08 830.618 1267.3 832.351 1288.69 845.486C1313.7 860.858 1320.67 882.798 1319.45 910.798C1319.07 919.405 1318.18 928.537 1320.83 936.869C1327.64 958.199 1354.26 969.35 1364.55 991.011C1380.18 1023.95 1362.09 1041.77 1368.17 1064.8C1374.33 1088.13 1398.34 1101.3 1404.2 1133.19C1413 1181.17 1380.02 1197.97 1383.32 1231.43C1385.3 1251.48 1400.51 1268.52 1404.97 1288.5C1413.25 1325.49 1397.12 1342.12 1379.09 1371.11C1364.15 1395.14 1377.37 1414.41 1382.83 1438.44C1397.6 1503.47 1343.74 1510.25 1336.18 1543.02C1329.31 1572.83 1349.54 1595.14 1331.84 1630.44C1315.87 1662.25 1284.99 1657.68 1269.78 1680.15C1256.32 1700.05 1261.95 1729.36 1246.64 1753.27C1235.04 1771.38 1215.49 1783.26 1194.42 1786.67C1184.65 1788.25 1174.53 1788.45 1164.91 1790.77C1138.06 1797.22 1135.88 1818.88 1123.74 1839.08C1117.1 1850.15 1108.22 1859 1096.65 1864.92C1060.2 1883.58 1037.99 1856.44 1011.08 1869.02C985.865 1880.81 984.714 1910.33 948.01 1917.36C910.031 1924.63 889.651 1893.63 856.153 1898.68C833.852 1902.04 816.057 1921.27 793.022 1927.15C760.032 1932.7 731.926 1922.38 706.983 1900.88C695.878 1891.3 684.308 1880 669.667 1876.58C648.001 1871.76 629.746 1885.53 607.215 1882.44C571.313 1877.52 561.304 1852.05 543.005 1825.88C532.209 1810.45 507.959 1811.87 490.834 1810.86C462.826 1809.2 442.955 1789.72 434.777 1763.76C430.467 1751.15 429.44 1741.35 420.806 1731.29L419.844 1730.18C379.253 1725.18 359.912 1709.54 355.017 1668.18C352.303 1645.23 327.563 1642.62 311.154 1632.02C280.084 1611.93 288.924 1584.89 285.984 1554.68C283.986 1537.82 263.677 1529.03 251.296 1521.52C210.555 1496.83 232.486 1449.35 225.034 1423.27C216.683 1394.05 183.397 1392.16 181.529 1344.44C181.074 1333.94 182.592 1323.46 186.004 1313.53C190.762 1299.98 203.062 1282.95 199.571 1268.94C193.885 1246.12 175.068 1237.47 170.552 1211.14C165.139 1179.56 171.655 1159.57 190.011 1134.26C211.165 1105.1 194.152 1088.92 188.707 1060.54C183.251 1032.11 191.696 1009.93 213.302 990.795C217.531 987.051 227.95 974.742 229.756 969.422C239.073 941.965 223.644 919.3 238.06 888.958C251.414 860.85 271.626 863.478 286.815 846.36C302.036 829.207 291.87 798.412 308.573 775.158C330.101 745.184 350.934 760.37 372.854 741.461C383.706 732.1 384.572 704.178 395.42 690.222C411.18 669.945 427.63 670.068 451.018 666.2C478.695 663.705 480.683 633.258 493.755 614.235C521.232 574.254 553.178 597.252 586.492 591.404C608.58 587.526 621.712 549.321 657.141 549.168C689.369 549.028 701.54 569.483 731.255 566.464C761.143 556.532 760.922 539.225 798.102 532.251Z" fill="#030303"/>
<path d="M801.127 559.002C802.55 558.888 803.976 558.809 805.403 558.766C824.07 558.277 836.741 572.311 848.804 584.009C890.623 624.57 904.992 594.704 945.987 591.564C985.563 588.531 989.809 642.798 1023.6 655.616C1048.67 665.125 1074.07 655.75 1094.11 669.653C1112.69 682.535 1111.6 717.854 1130.56 733.51C1149.97 749.535 1181.75 742.394 1197.4 762.89C1214.06 784.701 1201.18 824.917 1222.94 844.935C1238.85 859.568 1266.7 858.83 1283.13 874.942C1299.48 890.974 1292.02 914.21 1292.65 935.329C1293.68 969.952 1310.61 970.151 1332.09 990.24C1358.52 1014.95 1332.34 1048.38 1341.17 1074.27C1350.81 1102.53 1380.06 1113.71 1379.8 1149.45C1379.58 1180.27 1346.49 1203.3 1350.5 1230.54C1354.69 1259.09 1384.68 1277.43 1379.59 1312.42C1374.97 1344.31 1342.44 1354.31 1341.1 1386.11C1340.07 1410.59 1357.98 1432.73 1357.75 1458.27C1357.46 1489.27 1332.62 1493.46 1314.63 1511.61C1293.71 1532.7 1311.86 1566.25 1312.34 1592.11C1313.41 1651.52 1257.88 1629.11 1241.91 1661.43C1230.55 1684.45 1240.9 1723.51 1218.05 1746.1C1197.52 1766.4 1175.88 1759.49 1151.02 1759.88C1108.08 1760.57 1116.25 1811.38 1095.05 1832.4C1068.01 1859.19 1039.21 1830.81 1012.01 1830.27C991.798 1829.87 979.239 1861.2 966.222 1875.12C922.602 1921.75 887.662 1852.08 851.736 1862.24C818.4 1871.67 818.205 1899.97 773.032 1901.93C712.69 1894.89 706.079 1847.19 677.453 1839.85C654.472 1833.96 634.045 1858.67 609.803 1854.97C579.929 1850.41 572.733 1815.63 557.761 1795.08C534.461 1763.1 516.763 1788.3 487.293 1782.73C450.026 1775.69 453.761 1711.24 437.202 1685.67C430.447 1682.25 424.751 1699.22 414.361 1701.07C407.93 1702.2 405.522 1701.8 399.208 1698.45C379.499 1687.99 383.478 1666.54 377.624 1647.13C368.813 1617.91 349.503 1622.53 328.336 1611.11C299.948 1595.79 321.462 1560 313.149 1534.62C306.16 1513.27 291.185 1514.47 273.165 1504.28C227.932 1478.69 267.741 1439.2 252.089 1406.37C243.174 1387.67 215.922 1377.94 209.654 1353.93C203.629 1330.85 213.734 1314.03 224.767 1295.2C249.219 1253.48 205.399 1242.03 196.608 1207C188.797 1175.86 206.636 1159.19 221.073 1135.92C238.476 1107.86 223.033 1087.06 215.472 1060.04C201.779 1011.12 252.221 1010.69 259.791 973.936C264.131 952.865 249.779 918.315 264.063 897.326C276.583 878.927 308.026 877.637 318.119 855.427C326.639 836.676 318.339 810.043 329.657 792.037C341.447 773.278 363.96 779.412 381.651 774.769C408.092 767.829 401.999 729.854 414.81 710.02C429.265 687.639 451.058 697.164 472.825 691.177C500.01 683.699 500.184 652.898 512.65 633.54C535.357 598.278 569.041 628.962 595.444 623.496C620.514 618.307 628.788 577.442 659.206 576.412C685.496 575.522 713.451 606.033 738.925 597.357C764.278 588.721 769.306 566.171 801.127 559.002Z" fill="#FFD12D"/>
<path d="M798.009 632.715C825.214 630.376 838.069 657.034 865.729 664.096C894.735 671.504 908.042 662.211 936.422 658.601C952.344 656.575 969.395 692.206 983.63 699.081C1016.47 722.243 1055.64 696.488 1069.45 742.443C1073.6 756.214 1089.61 775.467 1101.7 783.319C1109.56 791.317 1150.69 797.403 1154.56 804.603C1168.45 830.916 1169.4 871.789 1201.43 886.889C1238.25 904.248 1241.43 904.369 1243.5 945.489C1244.34 962.245 1252.86 970.697 1260.6 983.521C1273.1 1004.23 1310.24 1008.19 1319.61 1017.52C1315.62 1025.08 1295.59 1015.15 1289.93 1012.78C1292.73 1029 1290.77 1042.2 1291.61 1058.31C1293.13 1087.68 1308.12 1114.27 1331.58 1131.75C1339.66 1137.76 1350.33 1143.94 1357.58 1150.42L1356.17 1151.57C1346.55 1151.22 1335.12 1142.64 1327.51 1136.88C1333.04 1163.95 1315.26 1189.39 1316.06 1219.58C1316.77 1246.14 1335.21 1275.44 1332.4 1299C1331.05 1310.21 1325.04 1319.22 1319.26 1328.55C1295.48 1366.89 1302.55 1388.94 1311.07 1430.37C1315.87 1453.7 1296.19 1461.86 1283.72 1477.43C1275.14 1488.14 1269.42 1501.35 1266.49 1514.72C1262.24 1534.14 1270.6 1564.85 1265.37 1576.56C1258.35 1592.22 1224.26 1603.26 1210.2 1625.5C1197.77 1645.17 1199.8 1680.28 1188.02 1693.42C1173.93 1709.13 1120.34 1705.92 1092.94 1736.64C1082.82 1747.99 1079.14 1762.19 1070.76 1774.33C1068.61 1777.42 1065.87 1780.24 1062.23 1781.48C1049.16 1785.95 1019.92 1777.66 997.719 1783.53C965.171 1792.17 955.06 1822.55 937.216 1827.42C923.439 1831.18 901.83 1819.12 888.265 1815.61C878.086 1812.99 867.136 1811.53 856.633 1812.28C818.096 1815.01 804.36 1839.36 780.142 1842.38C759.083 1845.03 743.068 1830.33 727.8 1818.26C726.286 1817.08 724.759 1815.89 723.221 1814.73C689.344 1789.13 665.372 1790.66 628.173 1801.46C613.01 1805.86 602.5 1783.69 595.151 1772.97C582.057 1753.88 563.223 1737.3 539.474 1733.15C526.415 1730.75 513.638 1733.25 500.424 1735.19C483.316 1678.82 476.959 1660.83 419.387 1643.71C406.824 1616.95 392.344 1591.4 358.97 1585.71C351.385 1584.42 343.833 1587.59 336.754 1583.59L336.704 1581.93C341.292 1578.49 356.767 1579.26 363.317 1579.18C358.121 1542.24 361.699 1521.16 330.313 1494.22C320.198 1485.54 314.674 1480.08 300.566 1477.42C295.62 1476.49 278.043 1474.51 275.168 1471.83L275.525 1469.42C281.87 1465.01 297.486 1468.74 304.687 1470.51C296.732 1445.83 306.057 1424.2 292.289 1395C282.85 1374.99 264.219 1363.15 258.92 1350.32C251.059 1347.4 242.083 1344.88 233.962 1342.5C236.403 1342.16 237.228 1342 239.596 1341.31L235.553 1338.15C242.53 1335.05 251.552 1339.87 257.809 1342.99C270.9 1299.49 280.134 1272.72 250.496 1230.54C242.326 1218.92 229.816 1204.45 223.655 1191.9L222.963 1190.49C230.616 1194.09 232.533 1194.81 238.93 1200.52C264.882 1168.9 273.929 1135.88 266.491 1095.85C262.397 1073.83 262.281 1062.63 277.855 1045.29C298.904 1021.85 304.355 995.35 302.038 964.252C299.257 926.92 343.557 923.269 352.578 889.555C358.936 874.872 356.938 851.076 366.918 838.982C372.217 833.513 382.136 831.093 389.068 828.874C426.061 817.033 450.34 781.336 435.763 742.608C434.165 738.365 428.861 727.146 432.518 723.79C443.503 730.35 446.029 745.939 447.613 757.675C476.809 746.548 499.199 754.745 524.525 722.092C531.9 712.585 543.971 687.103 552.854 685.667C571.662 682.627 581.621 690.749 604.192 687.494C631.806 683.51 650.071 652.084 663.84 650.489C689.654 647.495 711.543 670.177 746.509 660.519C770.4 653.92 779.778 639.207 798.009 632.715Z" fill="#030303"/>
<path d="M721.214 1193.08C745.791 1215.41 778.495 1252.07 800.418 1276.9C755.453 1324.45 706.81 1375.9 665.049 1425.85C672.553 1421.38 690.656 1402.55 697.54 1395.71C734.529 1358.97 769.629 1320.72 806.755 1284.01L815.258 1293.71C774.569 1338.64 733.41 1383.17 691.787 1427.25C653.478 1468.47 615.446 1510.68 575.469 1550.31C568.466 1544.09 561.473 1537.49 554.568 1531.13C538.595 1517.43 510.734 1487.4 498.42 1470.57C529.568 1438.41 559.902 1405.48 589.392 1371.8C611.275 1347.06 635.192 1320.13 654.052 1293.12C621.505 1322.62 586.554 1363.39 555.985 1396.18C539.805 1413.54 505.974 1448.21 493.588 1464.76L484.407 1451.9C520.479 1410.27 558.088 1369.21 595.196 1328.45C635.687 1283.98 678.347 1235.13 721.214 1193.08Z" fill="#FFD12D"/>
<path d="M710.659 978.926C719.082 985.396 730.112 996.956 737.866 1004.73L785.488 1053.04C867.417 1135.67 936.267 1211.1 1012.61 1298.48C1009.5 1301.7 1006.41 1305.15 1003.37 1308.46C977.608 1278.32 950.122 1249.67 921.071 1222.66C927.116 1231.99 938.178 1244.55 945.284 1253.35C962.29 1274.41 980.581 1294.33 998.402 1314.66C982.178 1332.86 956.234 1359.41 938.446 1375.16L927.429 1362.5C901.25 1330.79 872.825 1300.38 845.912 1269.27C812.148 1230.21 776.564 1192.54 740.377 1155.73C723.331 1138.38 706.077 1121.24 688.618 1104.31C670.65 1087.08 653.814 1071.99 637.135 1053.44C656.147 1031.06 674.513 1013.66 695.469 993.258C727.087 1026.88 760.221 1059.05 794.765 1089.66C790.915 1082.9 781.32 1073.02 776.072 1066.77C752.703 1038.95 726.464 1014.31 701.372 988.21C704.331 985.122 707.613 981.965 710.659 978.926Z" fill="#FFD12D"/>
<path d="M1132.46 1207.46C1145.77 1217.38 1181.86 1271.26 1191.27 1286.32C1185.7 1295.66 1173.8 1311.06 1167 1320.68C1148.69 1346.57 1130.19 1372.31 1111.51 1397.92C1150.11 1361.28 1165.29 1332.8 1196.65 1295.61L1204.03 1306.34C1181.75 1335.91 1163.28 1364.63 1139.32 1394.23C1081.98 1465.05 1014.88 1526.32 943.016 1582.06L933.563 1571.89L943.072 1564.19C982.413 1535.59 1013.17 1508.11 1043.97 1470.63C1039.48 1474.19 1034.8 1478.86 1030.48 1482.74C997.553 1512.23 961.943 1539.04 926.747 1565.82C908.2 1548.29 879.853 1517.07 863.35 1497.06C893.909 1467.53 932.926 1436.97 965.284 1406.71C1028.32 1346.79 1084.4 1279.95 1132.46 1207.46Z" fill="#FFD12D"/>
<path d="M1141.75 817.883L1144.29 818.882L1145.97 823.338C1144.04 830.942 1126.44 836.92 1119 842.218C1093.59 860.328 1066.62 879.857 1044.63 901.985C1058.85 894.456 1076.72 881.449 1090.26 872.007C1110.33 858.016 1127.39 847.364 1148.54 835.322C1148.93 837.032 1149.35 838.732 1149.81 840.422C1158.49 873.126 1174.93 891.523 1203.57 908.192C1123.56 949.296 1044.79 1020.37 983.329 1085.32C960.134 1109.84 936.692 1138.21 913.742 1161.71C895.775 1144.42 879.998 1127.01 862.624 1109.23C857.372 1104.1 852.332 1098.18 847.428 1092.65C872.199 1064.03 902.121 1034.22 928.033 1006.35C941.362 992.017 959.664 975.476 971.709 960.853C963.24 967.31 954.804 973.771 946.592 980.541C908.166 1012.19 876.557 1051.31 841.338 1086.02L831.211 1076C905.999 995.287 977.039 919.898 1070.65 859.539C1094.67 844.05 1115.86 830.41 1141.75 817.883Z" fill="#FFD12D"/>
<path d="M709.027 788.691C713.301 789.394 716.218 792.6 719.548 795.472C715.186 799.486 709.873 803.613 705.053 807.149C687.971 819.673 672.928 832.344 658.035 847.462C679.273 835.78 705.157 815.525 727.565 801.893C745.357 815.541 776.032 845.241 790.667 862.181C773.422 872.474 757.647 885.1 741.607 897.099C651.682 964.368 593.696 1036.63 530.547 1127.68L514.26 1106.9C499.06 1086.97 489.756 1071.86 476.876 1050.26C499.027 1017.75 524.295 984.927 545.584 952.404C521.391 972.859 490.8 1015.92 471.85 1041.95L465.582 1030.56C508.675 967.151 550.833 912.863 609.56 862.326C642.118 834.308 673.813 812.771 709.027 788.691Z" fill="#FFD12D"/>
<path d="M731.793 1408.65C736.32 1410.74 779.071 1462.25 785.823 1470.37C853.379 1551.63 925.094 1629.59 1007.2 1696.61C987.05 1714.62 966.726 1728.8 943.876 1743.23C906.401 1712.56 865.774 1679.87 829.662 1648C841.881 1667.01 893.406 1712.41 912.479 1727.79C920.233 1733.87 928.155 1740.93 935.686 1747.37C930.021 1751.03 927.664 1752.56 921.295 1755.31C900.959 1736.35 878.266 1718.78 856.679 1698.53C802.068 1646.71 750.889 1591.39 703.465 1532.92C695.077 1522.53 670.23 1493.5 664.503 1483.93C665.246 1480.44 665.599 1480.79 668.221 1477.89C671.443 1478.66 672.598 1480.05 675.14 1482.85C699.521 1509.79 721.474 1535.68 747.794 1560.85C727.82 1529.96 699.163 1497.07 675.217 1468.87C693.967 1448.69 712.827 1428.62 731.793 1408.65Z" fill="#FFD12D"/>
<path d="M391.46 966.625C394.845 972.522 402.582 995.204 406.442 1003.51C417.271 1026.81 428.458 1047.12 441.245 1069.38C487.731 1150.31 553.077 1214.25 614.936 1282.42C607.482 1291.77 597.235 1302.06 589.027 1311.21C579.412 1321.94 569.076 1334.16 558.606 1343.86C529.696 1315.69 500.484 1278.42 471.968 1252.07C499.134 1291.34 520.499 1314.84 553.099 1349.94L544.229 1360.42L532.002 1347.21C512.003 1325.37 488.544 1301.86 469.685 1279.23C427.839 1229.02 388.386 1172.63 360.303 1113.48C349.228 1090.15 340.927 1066.22 331.297 1042.35L337.324 1035.39C353.849 1076.49 384.532 1141.18 414.643 1173.18C393.258 1140.6 356.716 1062.63 343.127 1026.47C360.254 1001.95 371.41 988.762 391.46 966.625Z" fill="#FFD12D"/>
<path d="M774.525 665.828C780.746 665.997 796.171 677.551 802.314 681.219C886.401 731.436 946.066 810.037 1007.44 884.357C1003.75 887.383 999.799 890.349 996.023 893.275C976.19 867.2 947.798 834.28 924.77 811.308C941.161 838.492 969.475 872.951 990.447 897.672C967.62 918.01 947.027 934.705 924.312 956.378C912.703 946.285 889.786 915.56 878.937 901.736C817.185 827.179 747.001 753.787 659.006 710.049C676.823 697.233 691.201 688.77 710.482 678.693C728.32 680.995 739.444 679.785 756.181 674.386C779.696 691.301 803.255 707.638 826.369 725.046C840.485 735.677 866.59 762.316 880.255 770.016C865.842 754.954 851.618 737.847 836.058 724.056C813.91 704.423 788.17 688.658 763.965 671.729L774.525 665.828Z" fill="#FFD12D"/>
<path d="M1134.3 1002.04C1138.99 1002.86 1154.3 1017.58 1158.63 1021.57C1217.43 1075.7 1268.27 1140.73 1298 1215.41C1300.75 1226.24 1301.18 1236.55 1303.39 1247.67C1306.17 1261.72 1318.9 1285.78 1315.38 1299.74C1312.18 1312.41 1300.27 1324.51 1295.16 1337.61C1288.93 1353.53 1287.04 1368.67 1281.97 1384.75C1275.04 1358.31 1258.8 1325.82 1246.72 1301.64C1194.96 1200.65 1136.78 1145.41 1056.01 1070.18C1073.88 1050.75 1097.16 1031.85 1117.55 1014.79C1132.67 1028.2 1147.07 1042.2 1162.52 1055.22C1152.42 1037.98 1138.33 1024.17 1124.59 1009.87C1127.61 1007.15 1131.1 1004.56 1134.3 1002.04Z" fill="#FFD12D"/>
<path d="M1228.42 1130.68C1245.62 1141.22 1260.42 1175.98 1268.56 1193.84C1263.79 1190.19 1234.54 1140.51 1228.42 1130.68Z" fill="#030303"/>
<path d="M392.82 1376.44C395.318 1379.21 408.473 1406.65 411.413 1412.36C467.156 1520.7 550.451 1583.66 645.318 1656.22C633.242 1666.64 614.603 1680.53 601.506 1689.97C576.347 1675.78 541.582 1647.59 516.04 1630.85C534.936 1650.05 556.384 1668.65 578.429 1684.17C581.881 1686.6 590.342 1691.62 591.683 1695.16L590.403 1696.84L581.097 1703.26C556.3 1682.61 530.159 1663.37 505.069 1642.72C438.894 1588.28 392.244 1526.97 352.836 1451.1C355.047 1447.79 356.871 1443.98 358.701 1440.42C376.645 1473.75 391.896 1503.98 420.688 1529.56C396.999 1495.7 382.534 1468.25 362.914 1431.76C370.651 1413.95 382.383 1392.62 392.82 1376.44Z" fill="#FFD12D"/>
<path d="M1132.2 1430.09C1135.86 1432.83 1147.06 1446.73 1150.36 1451.09C1182.1 1493.04 1210.21 1534.82 1232.68 1582.5C1204.88 1601.07 1186 1624.03 1182.46 1658.05C1179.81 1683.54 1181.01 1683.93 1155.24 1689.04C1122.75 1624.02 1093.34 1587.73 1049.25 1530.96L1041.61 1521.22L1051.55 1511.4C1082.27 1540.06 1117.65 1593.5 1140.76 1629.1C1148.28 1640.69 1154.21 1655.43 1162.17 1666.59C1139.51 1599.66 1103.14 1557.38 1057.97 1504.94C1070.04 1492.8 1082.37 1481.8 1094.54 1469.09C1106.3 1456.8 1119.94 1441.31 1132.2 1430.09Z" fill="#FFD12D"/>
<path d="M1125.37 1447.63C1145.18 1457.48 1198.29 1542.24 1204.65 1565.77C1201.79 1563.5 1192.28 1549.56 1190.52 1546.11C1175.39 1516.58 1135.78 1476.84 1125.37 1447.63Z" fill="#030303"/>
<path d="M732.653 1595.23C736.859 1596.35 741.295 1602.54 744.257 1606.02C697.643 1658.67 652.766 1696.53 594.573 1734.79C641.835 1726.09 717.299 1646.9 749.708 1612.16C768.949 1631.99 786.842 1652.32 806.505 1672.26C776.037 1699.85 744.698 1726.45 712.533 1752.04C718.506 1749.8 723.365 1747.27 729.025 1744.41C755.466 1728.88 788.649 1699.75 812.535 1679.39L821.403 1687.68C814.255 1694.65 799.814 1706.49 791.846 1713.14C765.999 1734.7 729.225 1765.32 699.754 1781.89C666.461 1772.15 655.812 1776.62 623.562 1785.59C600.91 1756.91 606.102 1752.01 571.431 1727.29C625.973 1699.16 690.782 1639.72 732.653 1595.23Z" fill="#FFD12D"/>
<path d="M367.846 1163.13C371.403 1167.54 374.212 1173.22 376.982 1178.24C344.029 1213.42 319.119 1255.34 303.977 1301.1C314.829 1286.48 324.365 1267.49 334.04 1251.54C348.362 1228.01 363.679 1205.11 379.948 1182.87C395.64 1208.15 412.644 1232.58 430.89 1256.08C417.259 1270.84 406.475 1284.43 394.131 1300.21C359.416 1344.36 339.991 1383.61 317.656 1434.28C315.572 1409.58 309.583 1384.21 292.741 1365.46C271.778 1342.13 273.237 1349.2 282.436 1319.24C300.57 1260.2 330.7 1211.95 367.846 1163.13Z" fill="#FFD12D"/>
<path d="M518.104 751.969C523.934 757.705 541.617 789.864 548.241 799.22C562.518 819.384 576.768 835.971 592.216 854.987C589.16 858.368 585.628 861.917 582.456 865.245C566.921 850.074 547.834 822.86 534.451 805.066C526.294 794.22 518.597 779.127 508.794 769.813C519.037 802.096 552.18 846.616 576.685 870.751L515.311 934.527C507.54 925.316 501.307 917.583 494.058 907.89C480.826 889.885 468.386 871.694 457.264 852.327C452.866 844.669 446.997 833.473 440.871 827.529C452.713 862.224 484.631 914.433 512.774 938.301C509.277 943.146 505.112 948.179 501.37 952.892C475.282 923.537 438.888 864.596 423.429 829.521C447.875 810.473 448.359 798.39 458.876 771.541C462.389 770.48 472.456 768.96 476.512 768.209C494.057 764.959 503.172 761.093 518.104 751.969Z" fill="#FFD12D"/>
<path d="M1095.41 1619.96C1096.9 1621.57 1102.25 1630.14 1103.77 1632.48C1068.7 1684.92 1022.58 1731.83 968.346 1764.3C956.926 1771.14 943.183 1778.84 933.429 1787.76C1015.98 1754.7 1058.56 1709.35 1108.84 1639.66C1120.39 1657.64 1129.95 1674.58 1140.4 1693.17C1132.82 1694.82 1128.65 1696.28 1121.35 1698.84C1099.68 1707.56 1080.11 1721.63 1068.94 1742.48C1064.6 1750.57 1062.28 1757.59 1057.4 1765.55L1056.64 1766.75C1017.94 1761.75 985.832 1760.08 955.373 1789.13C939.865 1803.93 941.619 1817.15 916.579 1806.87C903.685 1801.58 886.434 1797.54 872.389 1796.21C899.696 1783.9 932.859 1769.2 958.435 1753.65C1010.65 1721.91 1060.68 1670.06 1095.41 1619.96Z" fill="#FFD12D"/>
<path d="M409.114 839.164L410.514 839.382C417.52 850.072 422.696 865.76 431.352 879.053C385.845 913.06 354.872 940.695 328.385 993.088C338.775 985.018 342.678 979.199 350.426 968.678C372.896 938.161 404.065 907.677 434.956 885.459C437.323 889.341 439.484 893.545 441.64 897.565C417.904 918.475 395.304 938.7 373.912 962.024C366.789 970.546 359.286 978.436 352.149 987.169C320.196 1026.26 302.561 1059.32 284.23 1105.67C282.336 1094.31 280.246 1082.71 278.876 1071.3C291.747 1051.45 301.279 1046.87 311.252 1020.93C315.411 1010.09 317.925 998.693 318.71 987.112C319.337 978.513 317.067 955.618 320.5 950.745C331.184 937.141 347.832 930.706 357.636 915.297C370.095 895.716 372.755 876.065 378.983 854.532C380.788 848.29 402.025 842.201 409.114 839.164Z" fill="#FFD12D"/>
<path d="M933.976 674.001C939.82 673.44 944.49 681.47 948.3 686.182C969.318 712.211 979.396 719.217 1010.97 727.134C981.586 742.017 962.412 748.835 934.501 769.524C931.641 770.812 930.423 768.312 928.423 766.203C906.356 742.842 882.88 721.831 858.623 700.841C871.093 696.406 883.081 689.508 895.339 685.273C907.518 681.07 921.429 677.735 933.976 674.001Z" fill="#FFD12D"/>
<path d="M924.478 686.062L926.478 686.712C920.958 691.104 906.533 696.087 899.584 698.563L897.014 698.414C899.662 694.654 918.914 688.154 924.478 686.062Z" fill="#030303"/>
<path d="M749.307 1389.82C760.163 1400.22 776.399 1421.34 787.146 1433.76C815.727 1467.2 844.604 1500.38 873.773 1533.29C910.455 1573.71 948.825 1612.57 988.769 1649.75C1000.27 1660.56 1012.31 1670.73 1023.55 1681.37C1020.71 1684.68 1016.86 1687.81 1013.53 1690.7C997.965 1680.42 957.987 1642.1 943.864 1628.59C870.198 1558.17 803.544 1479.69 737.83 1401.78L749.307 1389.82Z" fill="#FFD12D"/>
<path d="M796.584 868.379L807.31 880.705C749.972 923.489 697.385 965.315 647.628 1017.4C607.971 1058.92 579.661 1099.19 545.775 1144.79C541.402 1142.49 537.414 1136.38 534.375 1132.31C557.894 1101.51 580.474 1069.61 605.22 1039.82C660.752 974.081 725.157 916.381 796.584 868.379Z" fill="#FFD12D"/>
<path d="M1048.87 1075.94C1120.45 1136.37 1193.01 1218.63 1238.12 1301.02C1253.93 1329.9 1264.93 1362.39 1279.74 1387.75L1270.05 1399.93C1267.47 1396.23 1254.76 1368.14 1252.02 1362.31C1242.37 1341.45 1231.71 1321.08 1220.05 1301.27C1171.12 1218.71 1106.69 1152.25 1038.1 1086.14C1041.51 1082.69 1045.31 1079.27 1048.87 1075.94Z" fill="#FFD12D"/>
<path d="M631.515 1060.45C653.406 1083.07 676.597 1104.7 698.982 1126.87C729.11 1157.07 758.926 1187.58 788.426 1218.39C838.351 1270.81 885.628 1326.3 935.45 1378.78C932.545 1381.79 928.801 1385 925.662 1387.84C922.455 1387.72 776.574 1227.31 758.45 1208.35C716.052 1164.02 665.212 1114.99 623.179 1070.37L631.515 1060.45Z" fill="#FFD12D"/>
<path d="M1117.25 1191.05C1120.64 1194.07 1123.45 1197.69 1126.39 1201.17C1119.54 1214.12 1097.65 1241.98 1087.53 1255.47C1044.27 1313.35 995.742 1367.11 942.591 1416.06C915.685 1440.92 884.445 1465.77 858.466 1490.89C855.617 1487.91 851.941 1483.09 849.245 1479.77C905.83 1427.85 961.742 1379.39 1013.35 1321.87C1051.12 1279.77 1082.86 1235.57 1117.25 1191.05Z" fill="#FFD12D"/>
<path d="M405.949 1356.25C408.968 1359.39 427.237 1394.84 431.524 1401.65C441.996 1418.28 452.68 1435.74 464.062 1451.99C516.163 1526.33 590.819 1585.98 662.384 1640.9L652.252 1650.91C648.014 1649.37 614.18 1622.09 607.669 1617.21C508.4 1542.89 452.97 1477.32 397.174 1367.49C399.975 1363.73 403.048 1359.94 405.949 1356.25Z" fill="#FFD12D"/>
<path d="M406.166 951.938C408.396 954.412 422.848 986.405 425.848 992.307C435.755 1012.04 446.389 1031.41 457.727 1050.36C498.858 1119.16 572.691 1208.4 630.867 1264.86L621.231 1276.86C523.194 1179.45 452.467 1087.88 396.693 961.266L406.166 951.938Z" fill="#FFD12D"/>
<path d="M1209.77 911.617C1214.91 912.102 1218.86 912.735 1221.19 917.528C1220.7 919.725 1219.76 921.958 1217.71 923.224C1111.54 988.897 1011.27 1080.69 931.519 1176.06C930.088 1177.35 930.491 1176.91 928.424 1177.51C924.714 1175.68 922.502 1171.91 919.954 1168.49C936.457 1147.03 964.245 1118 983.24 1098.16C1048.95 1029.49 1126.21 957.892 1209.77 911.617Z" fill="#FFD12D"/>
<path d="M653.662 714.215C741.782 759.571 822.687 845.255 884.869 920.83C895.472 933.714 906.478 948.74 918.121 960.448L919.328 961.651C915.551 965.649 912.333 968.357 908.199 971.927C894.087 960.84 868.187 923.658 854.578 908.503C793.895 840.965 722.616 762.924 640.781 721.456C644.736 718.881 649.466 716.479 653.662 714.215Z" fill="#FFD12D"/>
<path d="M669.31 664.754C676.792 665.013 682.234 668.287 688.541 671.913C628.817 707.629 601.95 728.958 557.712 784.173L550.704 774.201C569.499 748.481 580.611 736.654 603.515 714.447C605.842 711.567 608.607 706.831 610.664 703.572C585.773 717.765 563.002 744.199 545.081 765.838C538.989 756.545 535.637 749.966 530.704 740.148C543.895 725.661 547.394 716.709 557.949 700.386C618.173 711.87 625.595 699.242 669.31 664.754Z" fill="#FFD12D"/>
<path d="M1266.84 1013.32C1270.53 1016.21 1272.57 1018.78 1275.66 1022.27C1276.07 1032.2 1274.96 1044.4 1275.36 1054.79C1276.71 1090.73 1286.85 1108.63 1309.07 1134.79C1303.23 1144.34 1297.01 1152.17 1290.23 1161.01C1279.28 1142.16 1270.55 1126.95 1258.17 1109.02L1239.33 1083.91C1253.02 1067.93 1262.25 1056.42 1268.13 1036.3C1260.56 1042.67 1243.37 1067.22 1233.96 1077.28C1230.63 1073.46 1227.29 1069.06 1224.11 1065.05C1239.97 1049.51 1253.29 1030.98 1266.84 1013.32Z" fill="#FFD12D"/>
<path d="M1286.52 1401.04C1289.88 1412.1 1293.19 1428.32 1295.74 1439.76C1293.03 1443.7 1287.55 1449.61 1283.96 1452.84C1256.2 1477.93 1242.51 1517.48 1249.36 1554.31C1250.53 1560.62 1253.08 1570.81 1246.34 1573.89C1242.98 1569.77 1238.03 1555.58 1234.41 1549.34C1227.59 1537.6 1220.65 1525.78 1214 1513.97C1226.28 1500.6 1237.96 1494.16 1252.19 1477.59C1263.85 1463.08 1274.47 1450.91 1281.51 1433.55C1268.83 1444.78 1257.23 1460.62 1245.11 1473.12C1234.13 1484.47 1220.38 1495.98 1210.47 1507.69C1207.57 1504.06 1204.65 1500.03 1201.83 1496.28C1211.19 1488.02 1220.45 1481.06 1229.8 1472.22C1252.82 1450.45 1270.26 1427.91 1286.52 1401.04Z" fill="#FFD12D"/>
<path d="M435.177 1261.73C436.641 1263.21 443.936 1272.97 445.586 1275.12C399.998 1327.76 351.647 1406.68 328.438 1471.77C310.68 1458.08 321.888 1444.41 329.779 1426.91C355.075 1370.85 392.372 1306.1 435.177 1261.73Z" fill="#FFD12D"/>
<path d="M758.144 1760.84C760.357 1762.85 771.754 1777.06 774.542 1780.24C785.699 1793 793.891 1799.85 807.046 1810C767.895 1843.75 752.915 1815.69 718.978 1792.08L717.457 1790.87C719.448 1786.07 738.41 1774.36 743.814 1770.75C750.679 1782.83 774.004 1813.19 788.555 1813.21C788.642 1811.09 787.87 1809.02 786.287 1807.55C772.802 1794.94 760.921 1782.67 749.282 1768.24L758.144 1760.84Z" fill="#FFD12D"/>
<path d="M396.402 1553.66C402.381 1556.27 429.218 1592.51 436.264 1599.83C451.643 1615.82 467.253 1630.02 483.567 1644.94C479.946 1648.91 478.36 1652.02 473.025 1650.32C454.828 1638 449.706 1635.24 428.636 1629.91C417.881 1600.23 403.578 1593.8 381.024 1574.37C385.386 1567.01 391.035 1560.35 396.402 1553.66Z" fill="#FFD12D"/>
<path d="M278.876 1170.9C286.012 1196.27 291.603 1204.35 305.286 1226.74C298.666 1240.2 291.715 1252.56 285.406 1266.4C282.53 1262.68 277.969 1245.92 275.15 1239.95C271.355 1231.01 261.125 1218.36 259.672 1209.09C258.154 1199.4 273.091 1178.14 278.876 1170.9Z" fill="#FFD12D"/>
<path d="M1030.7 729C1036.69 729.296 1046.47 729.86 1049.7 735.806C1048.94 738.37 1049.48 738.465 1046.6 739.514C1013.16 751.698 984.243 765.393 953.539 783.47L948.969 785.731C944.008 784.874 940.064 779.128 936.511 775.102C956.031 762.037 1008.82 732.478 1030.7 729Z" fill="#FFD12D"/>
<path d="M1025.68 1100.59C1031.01 1104.37 1036.74 1117.38 1039.59 1123.27C1050.45 1145.78 1057.03 1192.85 1047.22 1216.3C1043.17 1206.21 1039.77 1176.21 1037.62 1164.79C1033.32 1141.93 1027.69 1127.98 1018.01 1107.39L1025.68 1100.59Z" fill="#FFD12D"/>
<path d="M1204.66 1338.29C1206.42 1342.75 1207.35 1348.47 1208.05 1353.19C1215.26 1402.01 1199.33 1415.44 1173.9 1450.89L1172.54 1452.03L1171.43 1450.95C1172.41 1444.36 1188.1 1424.1 1192.3 1408.7C1199.54 1382.14 1195.5 1363.81 1204.66 1338.29Z" fill="#FFD12D"/>
<path d="M1032.64 1538.03C1035.6 1540.05 1039.55 1544.38 1042.24 1547.06C1031.11 1580.4 1015.1 1595.07 987.955 1615.27C985.463 1616.78 985.62 1616.86 982.77 1617.18C981.53 1613.76 988.447 1607.26 991.084 1604.57C1011.56 1583.64 1021.36 1564.55 1032.64 1538.03Z" fill="#FFD12D"/>
<path d="M841.924 1011.77C850.243 1011.25 859.103 1012.53 867.338 1013.62C861.215 1019.94 858.567 1022.37 851.175 1026.89C831.847 1026.44 825.962 1026.92 807.087 1031.56C801.083 1033.08 796.449 1034.69 790.275 1034.39C787.095 1032.28 788.175 1033.65 786.804 1030.23C790.967 1020.47 831.003 1012.6 841.924 1011.77Z" fill="#FFD12D"/>
<path d="M1009.06 777.125C1038.32 778.607 1061.56 788.648 1075.72 815.303L1065.29 810.488C1050.64 801.756 1041.22 797.473 1025.2 791.493C1017.43 788.594 998 785.046 994.011 780.562L994.614 779.292C999.005 777.411 1004.18 777.478 1009.06 777.125Z" fill="#FFD12D"/>
<path d="M285.304 1132.93C287.316 1135.32 291.021 1154.05 292.736 1159.29C299.172 1178.92 305.112 1191.25 315.755 1208.62L310.935 1218.41C299.5 1205.77 286.911 1175.96 281.191 1159.37C283.312 1150.69 284.689 1141.84 285.304 1132.93Z" fill="#FFD12D"/>
<path d="M1174.59 984.023C1201.96 993.657 1210.56 1019.65 1211.22 1046.24C1198.24 1040.57 1194.21 1021.31 1187.55 1009.64C1183.02 1001.68 1177.89 992.52 1174.59 984.023Z" fill="#FFD12D"/>
<path d="M792.002 936.891C798.538 936.452 805.559 935.629 811.69 938.251C809.36 945.342 772.35 949.388 764.543 952.55C757.812 955.275 750.755 959.312 744.384 962.69C738.562 964.961 732.527 967.132 726.655 969.315C745.554 947.675 764.686 940.229 792.002 936.891Z" fill="#FFD12D"/>
<path d="M622.458 1102.23C631.009 1109.07 621.86 1141.26 620.945 1152.25C620.068 1162.78 622.023 1203.78 618.342 1209.76C617.272 1203.97 616.649 1189.22 616.173 1182.78C613.995 1153.36 610.841 1130.43 622.458 1102.23Z" fill="#FFD12D"/>
<path d="M1198.95 955.734C1216.91 959.082 1232.68 1001.85 1228.7 1019.61L1227.8 1019.73C1224.01 1017.1 1200.39 962.208 1198.95 955.734Z" fill="#FFD12D"/>
<path d="M787.15 1349.16L789.059 1350.03C792.488 1357.51 793.836 1397.72 792.106 1407.75C791.493 1411.3 792.062 1410.25 789.649 1411.91C781.348 1399.27 779.042 1373.91 780.928 1358.87C781.616 1353.38 782.875 1352.25 787.15 1349.16Z" fill="#FFD12D"/>
<path d="M875.628 1403.54C875.774 1418.29 835.83 1442.97 821.159 1440.77C819.719 1438.87 819.175 1437.92 817.988 1435.85C820.719 1432.61 829.194 1432.18 833.214 1429.47C848.549 1419.17 858.689 1411.68 875.628 1403.54Z" fill="#FFD12D"/>
<path d="M1069.88 1602.21C1070.84 1605.61 1067.74 1612.84 1066.4 1616.25C1060.93 1630.24 1042.48 1648.64 1028.65 1654.06L1028.4 1652.6C1032.7 1638.93 1057.97 1611.65 1069.88 1602.21Z" fill="#FFD12D"/>
<path d="M1006.7 820.72C1009.27 820.569 1012.39 820.612 1014.95 820.495C1024.56 820.056 1063.83 833.228 1063.4 843.973L1059.42 846.274C1048.56 842.392 1036.91 836.761 1026.03 832.468C1018.3 829.419 1010.17 826.742 1002.7 823.399L1002.77 822.114L1006.7 820.72Z" fill="#FFD12D"/>
<path d="M1018.56 1217.44C1025.33 1227.33 1030.81 1271.86 1024.22 1282.57C1021.95 1281.92 1019.04 1281.34 1018 1278.78C1012.43 1265.22 1016.88 1231.58 1018.56 1217.44Z" fill="#FFD12D"/>
<path d="M659.211 1544.9C671.991 1546.43 699.617 1571.8 707.734 1581.7C687.821 1580.44 665.19 1564.14 659.211 1544.9Z" fill="#FFD12D"/>
<path d="M667.344 784.907C670.323 784.436 674.752 784.292 677.577 785.502L676.996 787.228C662.726 795.928 646.781 801.415 630.631 805.354C625.566 806.383 620.51 806.667 615.355 807.111C634.864 792.947 643.375 787.896 667.344 784.907Z" fill="#FFD12D"/>
<path d="M834.515 960.313C851.115 959.208 860.421 962.347 874.433 970.12C864.88 971.203 854.153 970.988 844.449 971.039C831.087 971.138 817.93 971.191 804.648 969.642C815.06 965.274 823.342 961.993 834.515 960.313Z" fill="#FFD12D"/>
<path d="M774.194 1750.59C780.987 1751.24 829.792 1757.67 833.177 1760.02L831.972 1761.44C813.59 1766.3 783.782 1771.66 774.194 1750.59Z" fill="#FFD12D"/>
<path d="M970.96 1161.77C980.625 1170.6 977.329 1215.79 974.312 1228.75C962.212 1218.97 969.519 1177.57 970.96 1161.77Z" fill="#FFD12D"/>
<path d="M1238.14 1389.77C1241.75 1394.12 1242.37 1410.93 1241.57 1416.78C1239.49 1431.92 1238.77 1436.97 1227.51 1446.36L1226.52 1446.52L1225.61 1445.49C1225.87 1438.05 1235.22 1396.31 1238.14 1389.77Z" fill="#FFD12D"/>
<path d="M574.573 1133.7C578.804 1137.47 583.199 1179.94 581.61 1186.07L580.124 1185.28C576.699 1182.11 574.185 1179.04 571.178 1175.54C568.907 1158.79 565.459 1148.15 574.573 1133.7Z" fill="#FFD12D"/>
<path d="M639.256 1589.74C642.724 1590.86 687.176 1615.12 688.193 1616.85L686.479 1619.07C684.084 1620.95 684.23 1620.98 681.372 1621.9C664.918 1618.25 648.467 1603.5 639.256 1589.74Z" fill="#FFD12D"/>
<path d="M313.194 1078.04C314.959 1087.57 311.216 1134 308.62 1143.42L307.016 1142.85C301.971 1115.58 300.351 1104.26 313.194 1078.04Z" fill="#FFD12D"/>
<path d="M434.274 1313.65L435.302 1314.36C437.401 1318.15 445.793 1357.4 444.742 1361.21L442.648 1361.49C431.981 1349.79 430.487 1340.4 426.953 1325.4C429.342 1321.48 431.838 1317.55 434.274 1313.65Z" fill="#FFD12D"/>
<path d="M674.893 1161.76C681.998 1168.18 681.81 1194.12 681.498 1203.5C681.287 1209.86 680.265 1210.02 676.01 1213.71L675.569 1213.97L674.203 1213.47C670.622 1191.89 670.107 1182.99 674.893 1161.76Z" fill="#FFD12D"/>
<path d="M612.967 765.305L614.11 766.473C610.692 776.822 585.436 800.053 575.995 805.974L574.782 804.416C577.336 790.666 601.136 772.185 612.967 765.305Z" fill="#FFD12D"/>
<path d="M827.026 1728.06C837.607 1726.29 849.88 1722.47 859.316 1726.25L861.07 1728.5C858.266 1737.45 837.431 1735.95 829.719 1734.92C823.647 1734.12 822.272 1734.16 816.773 1731.83L816.162 1730.3C819.534 1728.18 822.953 1728.39 827.026 1728.06Z" fill="#FFD12D"/>
<path d="M829.719 1734.92C823.647 1734.11 822.272 1734.16 816.773 1731.82L816.162 1730.29C819.534 1728.17 822.953 1728.38 827.026 1728.06L829.274 1729.56C829.461 1731.43 829.625 1733.03 829.719 1734.92Z" fill="#FFD12D"/>
<path d="M337.876 1104.84L339.31 1106.41C341.478 1114.68 333.023 1149.6 328.546 1157.53C323.493 1144.04 327.741 1115.22 337.876 1104.84Z" fill="#FFD12D"/>
<path d="M864.309 1348.32C877.616 1358.64 847.755 1379.42 837.016 1382.49L833.389 1382.05C833.422 1381.53 861.404 1351.44 864.309 1348.32Z" fill="#FFD12D"/>
<path d="M468.18 1367.28L470.235 1368.29C474.13 1373.4 493.171 1412.86 492.491 1418.47C490.168 1418.73 488.951 1419.38 487.474 1418.28C477.094 1410.44 471.243 1379.4 468.18 1367.28Z" fill="#FFD12D"/>
<path d="M487.124 1325.75C498.349 1331.1 498.348 1356.47 496.668 1367.08C485.25 1361.53 487.194 1336.64 487.124 1325.75Z" fill="#FFD12D"/>
<path d="M465.304 942.902C467.602 953.25 457.365 970.888 451.338 979.203C441.374 973.377 461.792 948.115 465.304 942.902Z" fill="#FFD12D"/>
<path d="M618.366 1532.33C624.543 1534.62 636.846 1547.94 639.598 1553.81L638.395 1555.62C631.839 1552.77 618.148 1544.67 615.5 1537.7C614.967 1536.29 617.434 1533.66 618.366 1532.33Z" fill="#FFD12D"/>
<path d="M795.075 584.219C798.07 605.05 768.791 635.746 749.535 640.764C740.73 643.059 738.315 644.477 728.974 643.795C728.88 642.975 728.686 641.962 729.561 641.54C736.241 638.318 748.731 634.113 754.584 630.282C772.645 618.458 783.245 601.387 795.075 584.219Z" fill="#030303"/>
<path d="M1007.12 683.992C1031.96 689.986 1044.39 691.519 1069.92 688.532C1073.26 688.141 1076.33 688.333 1078.81 690.591L1076.98 693.019C1057.43 704.043 1023.06 699.639 1007.12 683.992Z" fill="#030303"/>
<path d="M840.683 1832.73L842.267 1833.1C838.872 1836.45 819.181 1848.2 813.861 1852.07C801.84 1860.79 793.073 1868.85 781.977 1878.69L780.958 1878.22L780.475 1876.76C792.933 1851.35 813.836 1838.8 840.683 1832.73Z" fill="#030303"/>
<path d="M1101.32 1747.45C1101.45 1750.67 1091.95 1774.18 1090.23 1778.97C1085.29 1792.68 1085.42 1800.81 1083.53 1815.08L1081.7 1815.4C1071.41 1791.36 1082.95 1764.05 1101.32 1747.45Z" fill="#030303"/>
<path d="M650.5 1808.29C659.371 1807.73 664.132 1808.5 672.814 1809.84C656.433 1813.22 638.956 1820.79 624.028 1828.12C617.762 1831.46 613.289 1832.73 606.555 1834.91C620.091 1818.91 629.544 1812.21 650.5 1808.29Z" fill="#030303"/>
<path d="M233.693 1043.24C255.719 1048.7 262.251 1091.22 256.91 1110.48L256.021 1111.21C254.222 1109.62 253.666 1096.17 252.603 1091.75C248.345 1074.03 243.254 1058.77 233.693 1043.24Z" fill="#030303"/>
<path d="M1212.47 1652.36C1215.6 1656.22 1211.57 1707.91 1209.78 1716.18C1208.99 1716.92 1208.19 1717.65 1207.4 1718.39C1200.81 1702.21 1204.19 1667.75 1212.47 1652.36Z" fill="#030303"/>
<path d="M655.192 600.742C658.959 604.036 658.331 613.295 657.433 617.803C654.109 634.471 646.546 646.985 633.051 656.906L632.182 656.803C631.783 654.396 638.186 644.345 639.814 640.846C645.94 627.674 649.378 614.168 655.192 600.742Z" fill="#030303"/>
<path d="M972.524 1814.8C972.424 1816.95 961.842 1834.28 959.831 1837.81C953.038 1849.77 948.691 1860.52 944.121 1873.43C936.535 1853.13 955.362 1825.48 972.524 1814.8Z" fill="#030303"/>
<path d="M1318.09 1398.53C1318.54 1399.46 1335.11 1467.28 1335.11 1467.86C1319.89 1458.01 1313.81 1414.82 1318.09 1398.53Z" fill="#030303"/>
<path d="M533.523 642.164C546.043 651.228 536.82 681.815 531.579 693.658C530.506 694.734 531.254 694.116 529.069 695.128C527.253 689.758 531.904 649.209 533.523 642.164Z" fill="#030303"/>
<path d="M276.848 912.969C280.598 915.914 283.856 919.437 286.502 923.405C294.672 935.95 297.594 951.2 294.638 965.877C291.732 963.344 276.321 916.209 276.848 912.969Z" fill="#030303"/>
<path d="M341.135 803.164C357.629 809.201 357.347 841.031 355.661 855.753C354.736 855.258 353.59 854.338 352.705 853.692C350.889 837.137 342.366 816.187 341.135 803.164Z" fill="#030303"/>
<path d="M1277.31 1544.88C1281.25 1548.09 1287.41 1597.17 1285.86 1602.99C1272.33 1585.14 1274.83 1565.41 1277.31 1544.88Z" fill="#030303"/>
<path d="M218.221 1210.68C233.986 1215.46 245.924 1244.13 247.685 1259.3C243.106 1257.46 220.698 1217.79 218.221 1210.68Z" fill="#030303"/>
<path d="M519.257 1743.42C530.475 1742.08 533.903 1742.83 543.439 1748.86C529.146 1748.7 525.092 1749.65 511.332 1754.03C503.776 1757.15 496.152 1760.11 488.466 1762.89C499.53 1750.07 503.11 1748.16 519.257 1743.42Z" fill="#030303"/>
<path d="M1333.8 1262.21C1336.65 1264.12 1356.35 1299.67 1360.75 1306.6C1345.09 1310.26 1335.01 1274.25 1333.8 1262.21Z" fill="#030303"/>
<path d="M952.524 619.031L953.418 620.694C951.328 633.517 927.73 644.413 916.478 647.557L915.797 646.616L916.166 644.892C925.06 638.014 943.295 623.775 952.524 619.031Z" fill="#030303"/>
<path d="M344.84 1593.62C358.43 1592.63 377.353 1601.93 383.549 1614.39C375.831 1612.94 347.623 1600.75 344.84 1593.62Z" fill="#030303"/>
<path d="M1263.22 892.004C1266.47 891.645 1267.22 891.174 1269.99 892.796L1269.97 894.979C1265.03 900.537 1263.12 900.447 1255.87 901.523C1252.51 901.195 1250.86 901.424 1248.37 899.189L1248.96 897.09C1254 893.213 1257.09 893.106 1263.22 892.004Z" fill="#030303"/>
<path d="M1169.82 786.465C1173.2 786.948 1174.9 788.135 1176.63 790.922C1175.03 795.152 1175.58 793.792 1170.34 796.547C1166.76 796.715 1164.62 796.805 1162.59 793.808C1163.81 789.925 1166.37 788.849 1169.82 786.465Z" fill="#030303"/>
<path d="M153.745 123.188C173.878 124.815 199.41 124.872 219.708 125.262L299.241 127.306L611.227 134.583L1644.45 154.018C1648.72 154.129 1657.18 154.129 1659.33 157.298C1669.37 172.165 1679.79 215.854 1680.48 232.434C1682.11 271.176 1681.59 310.351 1681.63 348.708C1682 418.537 1681.92 488.369 1681.41 558.197L1681.39 1141.01L1681.62 1677.28C1682.22 1755.85 1682 1834.43 1680.92 1912.99C1680.27 1945.85 1680.58 1977.3 1678 2010.31C1666.4 2014.14 1653.53 2017.31 1641.65 2020.48C1643.65 1919.29 1642.16 1814.36 1642.16 1712.8L1642.02 1169.96L1641.7 436.241L1641.16 219.728C1613.73 215.707 1572.95 214.192 1544.67 212.212L1350.39 199.412C1236.42 191.977 1122.42 185.209 1008.38 179.107C954.905 176.086 901.429 172.961 847.969 169.709C844.129 169.474 836.566 168.846 834.874 172.764C839.743 178.548 911.787 182.063 923.955 182.972L1064 193.135L1463.64 218.804C1520.01 222.49 1578.2 225.353 1634.42 230.226C1632.71 309.964 1634.92 392.234 1634.25 472.451L1633.21 1541.07L1633.03 1899.92L1633.16 2000.57C1633.28 2020.46 1634.2 2047.58 1632.39 2066.75C1623.71 2080.18 1610.29 2097.4 1600.45 2110.49C1601.64 2071.32 1600.92 2028.84 1600.93 1989.43L1600.89 1782.21L1599.72 1536.67C1599.59 1520.3 1600.52 1402.01 1595.28 1394.2L1594.11 1395.14C1588.23 1411.16 1589.98 1529.98 1589.85 1558.82L1589.75 1958.43L1590.08 2062.74C1590.27 2081.88 1591.22 2100.43 1590.77 2119.61C1585.49 2129.15 1578.58 2135.25 1570.84 2142.8C1569.9 2121.07 1570.57 2096.1 1570.47 2074.11L1570.08 1935.09L1569.9 1511.72L1569.82 810.728C1569.81 675.991 1568.62 539.877 1570.05 405.281C1549.61 402.231 1525.95 400.069 1504.87 397.214C1428.82 386.287 1352.67 376.125 1276.42 366.729L143.233 221.076C127.445 218.933 108.584 216.695 92.7828 213.615C89.4889 212.972 85.8151 209.703 83.6843 206.904C77.6373 184.534 135.582 132.511 153.745 123.188Z" fill="#FFD12D"/>
<path d="M950.871 280.731C968.939 279.321 1018.48 286.054 1039.4 288.366L1202.53 306.574L1434.28 332.613C1483.73 338.043 1540.56 343.568 1589.35 351.078C1590.96 367.685 1589.93 406.829 1589.97 424.793L1589.84 580.196L1589.82 835.244C1589.83 858.964 1592.13 977.441 1587.57 989.894C1585.55 989.028 1586.17 989.296 1584.45 987.778C1582.79 982.181 1582.8 961.718 1582.66 954.927C1582.1 923.036 1581.86 891.14 1581.93 859.245L1581.83 541.691L1581.86 426.08C1581.78 410.882 1580.58 372.268 1582.89 359.249C1546.78 358.73 1486.08 350.266 1448.85 346.209L1185.13 316.532L1028.54 299.152C1013.23 297.434 964.179 292.624 952.302 288.953C950.011 285.508 950.827 285.793 950.871 280.731Z" fill="#030303"/>
<path d="M156.357 157.037C170.389 155.323 212.775 159.327 229.837 160.58C280.652 164.266 331.445 168.268 382.21 172.585C583.429 188.853 784.561 206.172 985.596 224.54C1005.35 226.169 1140.49 233.197 1149.69 240.585C1151.3 241.874 1150.98 243.849 1151.26 245.76C1128.92 247.871 1062.55 240.841 1037.27 238.635L825.296 220.254L376.624 181.591L241.81 168.488C230.362 167.422 161.258 163.916 156.357 157.037Z" fill="#030303"/>
<path d="M1224.34 246.272C1246.64 244.026 1290.29 248.788 1314.48 250.824L1457 263.027L1565.29 272.981C1577.9 274.179 1610.71 276.514 1620.85 279.791C1623.75 285.472 1623.05 343.779 1623.09 353.38L1623.67 484.64C1624.59 614.887 1626.1 745.381 1624.12 875.603C1623.99 883.835 1623.81 898.298 1621.86 905.982L1619.14 904.409C1614.86 894.775 1616.24 735.649 1616.3 713.379L1616.48 511.869L1616.63 375.588C1616.61 347.848 1615.8 314.52 1617.55 287.245C1531.16 282.125 1439.92 273.503 1353.4 266.403C1320.28 263.99 1287.23 260.848 1254.26 256.982C1246.2 256.008 1227.33 256.642 1223.37 249.322L1224.34 246.272Z" fill="#030303"/>
<path d="M225.566 200.542C241.472 198.863 289.084 205.092 307.382 207.086L448.446 222.384L747.371 255.593C784.685 259.454 821.973 263.561 859.237 267.913C870.544 269.168 899.003 269.687 906.958 275.748C908.288 279.369 907.852 278.23 905.841 282.991C898.656 284.933 807.487 273.584 794.446 272.143C627.334 253.518 460.341 233.832 293.479 213.087C273.397 210.488 251.696 208.258 231.644 204.943C228.165 204.368 227.097 202.961 225.566 200.542Z" fill="#030303"/>
<path d="M1503.35 469.219C1508.86 478.366 1507.05 559.445 1507.07 577.881L1507.4 759.623L1507.25 1765.52L1507.22 2060.51L1507.26 2146.66C1507.26 2165.83 1507.36 2183.5 1505.72 2202.65C1504.02 2222.26 1482.75 2255.87 1460.51 2252.25C1462.81 2094.94 1460.46 1933.64 1460.62 1775.98L1461.37 500.376C1470.39 490.922 1492.08 476.891 1503.35 469.219Z" fill="#FFD12D"/>
<path d="M182.052 56.1534C188.233 55.3563 192.252 55.7582 198.389 56.1165C202.758 64.7254 205.088 70.6093 207.842 79.7587C151.542 95.0547 93.7061 135.453 67.0465 188.436C55.9625 210.465 66.9515 227.001 89.9608 231.437C107.716 234.861 125.317 237.481 143.242 240.241L229.167 253.811L500.158 295.353L1259.84 413.172L1407.33 436.397C1426.7 439.371 1478.95 445.942 1493.64 451.815C1485.53 460.632 1465.1 474.447 1454.92 481.293C1438.72 473.48 1357.58 462.111 1334.74 458.382L1105.35 421.152L119.593 261.003C119.264 272.791 119.462 285.772 119.429 297.653L119.428 1890.66C112.437 1892.84 108.835 1893.34 101.627 1894.46C100.647 1847.45 101.25 1798.46 101.241 1751.34L101.149 1504.36L101.139 717.754L101.06 418.979L101.141 319.354C101.15 299.524 101.676 276.522 100.333 257.039C76.1259 249.862 48.8462 240.948 41.3645 213.789C35.0962 191.035 42.0651 163.495 53.8016 143.721C79.021 101.229 135.644 68.2461 182.052 56.1534Z" fill="#FFD12D"/>
<path d="M744.377 308.988L1561.87 413.102L1563.19 1642.91L1562.97 1989.81C1562.97 2042.07 1561.83 2098.93 1563.09 2150.91C1553.73 2157.95 1544.21 2164.79 1533.66 2169.99C1533.37 2125.93 1533.39 2081.89 1533.73 2037.83L1533.83 1783.06L1533.91 981.098L1533.57 647.395L1533.64 546.62C1533.73 513.098 1539.78 465.133 1514 440.006C1507.23 433.41 1501.36 431.729 1492.34 429.701C1467.88 424.954 1442.44 421.216 1417.82 417.378L1278.07 395.975L872.545 333.357L784.881 319.921C771.693 317.888 748.503 314.957 736.248 311.912C739.228 310.17 741.027 309.951 744.377 308.988Z" fill="#FFD12D"/>
<path d="M1656.84 88.9353L1674.83 88.6172C1668.8 108.465 1661.34 122.509 1655.97 144.584C1609.24 141.45 1556.1 141.749 1508.97 140.603L1194.33 133.866C869.506 126.358 544.658 120.588 219.782 116.557C202.739 116.556 185.696 116.161 168.67 115.375C209.477 89.5337 235.45 95.3667 281.189 95.0211C311.395 94.7928 342.091 94.1704 372.395 94.063L672.695 92.7489L1656.84 88.9353Z" fill="#FFD12D"/>
<path d="M1680.59 104.785C1683 111.984 1681.52 175.306 1681.47 187.556L1677.41 176.398C1673.93 166.075 1669.46 156.115 1664.04 146.662C1668.07 135.319 1675.06 114.766 1680.59 104.785Z" fill="#FFD12D"/>
<path d="M624.997 293.844C658.562 295.959 709.208 304.55 744.377 308.984C741.027 309.947 739.228 310.166 736.248 311.908C721.06 311.402 638.084 298.356 624.997 293.844Z" fill="#FFD12D"/>
</svg>
