<svg width="1601" height="1981" viewBox="0 0 1601 1981" fill="none" xmlns="http://www.w3.org/2000/svg">
<path d="M716.433 1.31435C722.878 0.55734 730.101 1.12158 736.139 0.581589C767.875 -2.2473 794.172 5.6649 823.84 15.1958C831.078 17.5255 844.878 17.4758 853.06 19.0013C864.013 21.0412 876.09 22.9599 887.183 24.5901C894.69 25.4863 909.574 20.1183 918.025 19.0983C926.387 18.0885 936.076 18.3196 944.501 19.2387C980.986 23.2114 1024.44 36.7444 1053.37 59.9729C1060.55 65.7545 1068.29 75.2369 1074.19 82.3091C1115.19 84.6185 1129.41 91.9958 1158.21 120.535C1206.07 113.112 1235.02 108.81 1262.38 156.495C1307.39 158.455 1340.53 169.454 1340.24 221.739C1371.07 257.834 1362.52 298.536 1317.21 315.837C1308.92 334.708 1297.88 337.889 1292.89 349.119C1281.38 374.983 1270.46 406.495 1260.3 433.2L1339.06 436.86C1390.37 439.29 1478.58 442.751 1515.17 484.312C1580.13 553.39 1567.83 739.377 1489.61 792.3C1431.81 831.41 1273.9 809.832 1203.02 806.029L1181.87 921.936C1201.14 929.803 1223.25 938.382 1241.1 948.716C1256.83 957.823 1264.5 965.218 1269.11 982.627C1261.44 1019.39 1226.94 1088.57 1208.85 1122.28C1231.55 1126.37 1270.73 1134.6 1290.48 1147.73C1300.72 1154.54 1296.49 1170.97 1298.46 1172.56C1313.76 1184.85 1360.5 1211.55 1375.64 1222.81L1377.06 1222.18C1400.56 1211.3 1416.04 1231.29 1435.45 1242.5C1456.48 1254.64 1464.86 1268.83 1460.88 1293.94C1469.39 1302.18 1478.85 1311.01 1486.43 1319.96C1526.54 1367.35 1526.29 1454.61 1472.51 1492.2C1453.93 1505.17 1439.11 1512.35 1416.16 1514.6C1378.17 1518.34 1348.78 1503.52 1320.16 1479.79C1298.79 1491.19 1287.06 1480.25 1270.47 1467.6C1251.48 1453.12 1243.5 1438.59 1230.34 1419.57C1228.19 1416.48 1217.57 1408.95 1213.88 1406.22C1215.26 1414.27 1213.16 1425.5 1213.74 1427.26C1218.68 1442.22 1226.5 1457.98 1229.23 1473.85C1229.48 1475.4 1228.78 1486.52 1228.73 1486.41C1236.31 1501.48 1275.03 1535.56 1287.73 1545.28C1304.2 1557.89 1302.61 1549.13 1318.19 1566.53C1335.84 1563.71 1343.34 1560.68 1356.12 1574.84C1361.83 1571.6 1372.37 1564.44 1377.57 1560.33C1456.6 1497.99 1579.55 1515.23 1597.86 1626.9C1608.51 1691.76 1583.43 1759.33 1545.5 1813.14C1422.27 1987.97 1142.47 2028.22 969.497 1905.37C913.34 1863.78 884.515 1819.41 854.924 1757.83C792.066 1750.65 728.582 1751.14 665.851 1759.29C643.964 1849.75 602.147 1932.68 509.82 1967.54C450.459 1989.95 374.4 1982.82 316.776 1957.66C276.788 1940.21 249.754 1913.49 234.064 1872.64C215.213 1823.72 216.621 1769.3 237.979 1721.42C226.25 1713.49 196.585 1687.64 192.706 1674.99C187.33 1657.46 221.506 1616.7 230.916 1602.31C251.437 1570.96 275.203 1539.53 292.786 1506.93C288.442 1506.01 276.385 1502.79 273.066 1502.75C240.844 1502.36 226.883 1505.6 194.98 1497.39C160.582 1489.69 128.328 1460.64 112.234 1430.01C62.8206 1335.96 113.822 1230.92 200.486 1180.87C217.365 1171.11 233.255 1162.65 249.832 1153.53C249.565 1149.22 248.452 1140.16 251.464 1137.4C267.813 1122.46 315.97 1111.48 335.788 1109.54C319.418 1079.14 301.341 1047.43 288.622 1015.42C273.587 977.578 308.585 960.273 336.752 946.887C359.97 935.851 382.379 927.361 407.259 919.734C409.4 885.099 412.137 850.505 415.471 815.965C340.794 823.304 266.571 857.912 213.54 910.378C174.398 950.021 114.014 1001.18 54.2165 972.345C-30.8518 931.337 2.15143 784.024 32.7305 718.827C89.8393 597.067 171.744 532.516 294.507 488.265C276.801 458.532 264.813 426.632 246.719 396.728C232.501 373.234 222.423 383.399 214.523 357.633C199.983 353.18 190.081 347.471 180.859 334.498C171.609 321.563 168.274 305.315 171.683 289.784C175.003 274.012 182.701 264.303 196.007 255.941C195.328 251.691 194.186 245.787 194.189 241.564C194.209 201.351 237.358 183.244 271.708 184.06C290.079 142.955 328.967 130.574 370.389 139.973C389.39 128.351 409.145 119.174 428.332 108.281C433.678 104.179 440.49 91.6473 445.343 87.8839C490.077 53.1905 537.936 39.3192 593.43 38.9362C645.552 8.8091 655.534 5.6113 716.433 1.31435Z" fill="#FFD12D"/>
<path d="M1464.83 612.438C1468.3 613.479 1468.27 613.238 1470.85 615.676C1471.86 628 1468.66 646.203 1468.78 659.123C1468.94 676.509 1470.92 692.444 1470.07 709.895L1467.33 710.356C1460.82 704.786 1461.65 623.152 1464.83 612.438Z" fill="#FFD12D"/>
<path d="M664.585 947.188L669.242 949.541C670.114 952.908 663.596 1047.37 662.148 1056.1H659.681C656.554 1050.73 662.47 958.029 664.585 947.188Z" fill="#FFD12D"/>
<path d="M859.048 1257.52C862.151 1263.22 857.172 1318.69 852.768 1323.83C848.146 1309.93 851.261 1269.78 859.048 1257.52Z" fill="#FFD12D"/>
<path d="M1378.53 1628.32L1380.35 1630.3L1379.96 1632.83C1370.6 1643.14 1346.37 1649.73 1332.62 1651.49C1330.55 1650.86 1331.54 1651.49 1330.13 1649.06C1333.13 1645.57 1370.59 1632.21 1378.53 1628.32Z" fill="#FFD12D"/>
<path d="M1181.49 748.708C1186.66 748.53 1184.54 747.81 1188.45 749.874C1186.56 754.054 1169.69 762.424 1164.05 768.198C1170.87 773.115 1179.05 778.924 1183.33 786.2L1179.36 786.162C1172.58 781.178 1159.26 772.206 1154.97 765.729L1155.68 764.061C1165.19 764.862 1167.33 755.58 1181.49 748.708Z" fill="#FFD12D"/>
<path d="M264.43 562.297C265.707 562.175 267.481 562.344 268.819 562.408L270.246 564.527C268.27 569.716 242.092 582.952 235.374 586.947C232.279 588.285 233.878 587.934 230.44 587.424L229.635 584.794C233.278 576.444 255.793 566.516 264.43 562.297Z" fill="#FFD12D"/>
<path d="M1471.71 561.969C1473.57 563.27 1474.06 563.983 1475.65 565.626C1478.28 574.829 1474.14 594.764 1471.02 603.77C1461.85 598.372 1467.21 570.046 1471.71 561.969Z" fill="#FFD12D"/>
<path d="M295.684 774.449C300.6 773.997 298.68 773.278 302.346 775.193C300.573 779.79 273.295 793.706 266.971 797.471C264.806 798.08 264.325 797.934 262.046 798.054L261.838 796.416C268.894 787.178 284.929 778.723 295.684 774.449Z" fill="#FFD12D"/>
<path d="M1478.74 514.887L1480.01 516.332C1481.12 524.434 1480.35 540.495 1476.08 547.387L1474.42 547.545C1470.01 541.18 1477.46 535.071 1469.83 527.218C1461.57 523.334 1454.93 519.941 1446.94 515.531C1458.87 517.015 1463.35 520.158 1474.41 522.574C1478.12 520.56 1477.03 520.53 1478.74 514.887Z" fill="#FFD12D"/>
<path d="M668.773 884.625L671.485 886.306C674.036 892.713 671.136 923.882 669.395 931.397C660.352 925.18 664.896 893.312 668.773 884.625Z" fill="#FFD12D"/>
<path d="M1560.16 1610.14C1569.57 1618.34 1564.06 1649.25 1558.98 1659.35L1556.79 1658.62C1554.4 1654.42 1559.95 1619.47 1560.16 1610.14Z" fill="#FFD12D"/>
<path d="M870.055 732.445C886.778 734.841 905.671 738.528 908.441 758.251C898.293 752.714 888.961 741.706 875.25 738.835C872.085 738.172 870.999 735.189 870.055 732.445Z" fill="#FFD12D"/>
<path d="M867.861 1138.79L871.014 1140.03C873.49 1147.41 867.516 1172.18 864.886 1179.95C856.435 1175.44 863.342 1146.26 867.861 1138.79Z" fill="#FFD12D"/>
<path d="M1463.74 723.355C1469 723.073 1468.09 722.279 1471.51 724.669C1474.36 732.259 1475.24 752.1 1468.63 757.201C1466.52 753.85 1467.62 751.564 1467.91 746.622L1468.9 726.604C1463.04 729.544 1457.69 733.07 1451.24 731.708L1450.9 730.072C1455.01 725.986 1458.21 725.363 1463.74 723.355Z" fill="#FFD12D"/>
<path d="M459.987 945.184C467.08 953.923 460.98 982.894 458.968 993.31C450.724 986.404 457.688 954.602 459.987 945.184Z" fill="#FFD12D"/>
<path d="M861.528 1192.3L864.017 1194.55C866.379 1203 862.485 1229.64 859.728 1238.3C852.898 1233.06 857.57 1199.87 861.528 1192.3Z" fill="#FFD12D"/>
<path d="M1113.29 952.664L1114.98 954.202C1118.78 962.99 1113.89 984.25 1111.66 993.557L1109.3 991.667C1105.8 983.459 1106.85 959.293 1113.29 952.664Z" fill="#FFD12D"/>
<path d="M1294.45 491.569C1305.19 491.149 1330.46 486.909 1333.99 498.169C1325.84 498.331 1303.4 499.95 1296.25 495.958C1294.81 495.15 1294.92 493.567 1294.45 491.569Z" fill="#FFD12D"/>
<path d="M313.001 543.554C316.583 543.359 319.47 542.738 322.546 544.358C319.794 549.056 303.824 553.669 298.181 555.616C294.045 557.311 290.015 559.711 286.182 556.669C289.669 548.513 305.019 545.307 313.001 543.554Z" fill="#FFD12D"/>
<path d="M631.957 1588.45C640.645 1596.55 631.389 1626.33 628.127 1636.37L626.19 1635.82C623.989 1629.03 630.315 1597.3 631.957 1588.45Z" fill="#FFD12D"/>
<path d="M120.881 687.004L122.917 688.443C124.001 695.054 110.395 715.64 106.334 722.26C98.2791 712.57 113.93 694.127 120.881 687.004Z" fill="#FFD12D"/>
<path d="M55.9466 824.668L58.4194 827.425C60.0917 836.548 56.4675 859.792 51.6574 867C45.0562 857.052 52.3135 835.364 55.9466 824.668Z" fill="#FFD12D"/>
<path d="M133.752 903.188L134.807 904.736C130.691 917.398 104.322 935.938 90.9882 938.006L90.1699 936.778C91.5729 933.052 98.8442 932.898 103.37 929.461C113.737 921.585 124.065 911.829 133.752 903.188Z" fill="#FFD12D"/>
<path d="M1453.72 1579.88L1454.94 1582.42C1452.68 1588.89 1436.98 1601.64 1430.94 1606.97C1429.88 1604.96 1429.35 1603.65 1428.47 1601.56C1431.86 1591.43 1444.62 1584.83 1453.72 1579.88Z" fill="#FFD12D"/>
<path d="M1537.82 1713.25C1540.23 1714.44 1539.29 1713.48 1540.31 1716.43C1538.5 1729.5 1529.96 1743.51 1521.99 1753.82L1520.62 1753.71C1519.62 1747.82 1534.08 1719.29 1537.82 1713.25Z" fill="#FFD12D"/>
<path d="M894.465 1699.32C901.435 1703.39 912.503 1731.75 916.511 1740.39C904.703 1737.26 895.665 1710.62 894.465 1699.32Z" fill="#FFD12D"/>
<path d="M73.6098 775.977L76.7259 777.253C78.2948 783.776 69.5158 802.301 66.5389 809.6C64.5946 808.667 64.7593 808.439 63.1406 806.802C61.4543 797.468 68.3299 783.625 73.6098 775.977Z" fill="#FFD12D"/>
<path d="M873.753 1086.56L875.834 1087.97C879.357 1097.35 874.379 1116.77 871.838 1126.46L869.068 1124.92C866.03 1117.11 871.021 1094.59 873.753 1086.56Z" fill="#FFD12D"/>
<path d="M1434.07 1849.16C1435.8 1850.16 1434.88 1849.42 1436.4 1851.83C1433.76 1859.33 1414.65 1867.61 1407.17 1870.74C1406.39 1869.36 1406.4 1868.77 1406 1867.2C1409.9 1860.96 1426.73 1853.08 1434.07 1849.16Z" fill="#FFD12D"/>
<path d="M912.871 770.133C921.744 775.461 919.446 802.845 917.659 812.053C916.956 811.499 915.973 810.187 915.361 809.439C913.88 799.357 910.382 779.447 912.871 770.133Z" fill="#FFD12D"/>
<path d="M459.973 781.324C468.235 788.008 467.086 808.602 465.198 818.336C456.775 815.382 458.95 789.096 459.973 781.324Z" fill="#FFD12D"/>
<path d="M1551.61 1667.45C1560.44 1674.11 1550.28 1692.99 1544.84 1699.33C1538.38 1695.58 1548.81 1672.83 1551.61 1667.45Z" fill="#FFD12D"/>
<path d="M92.3095 734.168L95.0184 736.223C96.7583 742.817 87.7483 757.247 84.1381 764.082L82.9445 763.807C76.5872 756.591 87.4214 740.39 92.3095 734.168Z" fill="#FFD12D"/>
<path d="M1415.83 1607.71C1418.55 1609.17 1417.5 1608.08 1418.83 1611.11C1415.25 1617.4 1400.66 1623.88 1393.95 1627.3L1390.77 1626.6L1390.69 1624.4C1397.06 1617.02 1407.2 1612.12 1415.83 1607.71Z" fill="#FFD12D"/>
<path d="M1050.36 1882.59C1061.03 1881.27 1078.29 1893.26 1088.18 1899.04C1077.24 1899.91 1056 1891.92 1050.36 1882.59Z" fill="#FFD12D"/>
<path d="M612.971 1707.25L614.237 1708.64C615.006 1720.66 608.391 1745.21 603.804 1756.38L602.66 1755.48C600.988 1749.4 610.216 1714.61 612.971 1707.25Z" fill="#FFD12D"/>
<path d="M149.006 651.301L150.76 651.878C156.596 658.273 142.078 670.06 137.333 675.022C136.281 674.702 135.376 673.781 134.393 673.014L134.111 669.727C136.994 661.915 142.88 656.641 149.006 651.301Z" fill="#FFD12D"/>
<path d="M1230.9 1913.43C1238.87 1913.08 1256.38 1911.77 1263.49 1913.95L1264.15 1915.71L1261.83 1917.68C1254.92 1918.55 1233.2 1922.02 1229.51 1915.75L1230.9 1913.43Z" fill="#FFD12D"/>
<path d="M649.141 1295.67C651.328 1297.15 650.973 1297.08 652.75 1299.14C655.286 1311.37 652.189 1323.04 650.024 1335.39L648.302 1335.14C645.054 1329.72 648.079 1302.82 649.141 1295.67Z" fill="#FFD12D"/>
<path d="M505.286 1912.84L506.187 1913.72C507.112 1925.07 479.66 1939.89 469.913 1942.89L468.688 1940.73C472.917 1937.78 477.421 1936.24 481.849 1933.34C490.476 1927.7 497.941 1920.06 505.286 1912.84Z" fill="#FFD12D"/>
<path d="M1103.07 1903.06C1112.04 1902.12 1136.22 1905.77 1141.58 1912.75C1130.72 1914.46 1111.04 1910.54 1103.07 1903.06Z" fill="#FFD12D"/>
<path d="M1351 744.233C1359.39 743.888 1384.6 741.497 1390.36 746.401L1389.58 748.804C1382.17 748.897 1354.32 750.171 1349.93 745.984L1351 744.233Z" fill="#FFD12D"/>
<path d="M1223.78 741.629C1230.62 742.212 1239.71 743.791 1246.71 744.825C1235.51 747.307 1231.58 747.464 1220.16 747.816C1214.85 748.683 1209.6 750.308 1205.21 747.705L1206.55 745.713C1212.83 742.183 1216.62 742.372 1223.78 741.629Z" fill="#FFD12D"/>
<path d="M821.891 725.115C831.363 724.021 849.465 723.111 854.43 733.368C847.46 733.881 824.393 732.346 821.891 725.115Z" fill="#FFD12D"/>
<path d="M656.699 1129.78L658.589 1130.49C661.473 1136.01 657.366 1162.55 656.002 1169.5L655.098 1169.57L653.823 1168.33C652.879 1157.29 651.993 1139.63 656.699 1129.78Z" fill="#FFD12D"/>
<path d="M792.872 722.549C795.834 722.376 801.055 722.37 803.812 723.361L804.668 725.615L804.093 726.35C795.655 729.681 789.796 728.99 780.719 728.858C774.285 729.373 770.175 729.093 763.83 728.743C776.353 723.866 779.877 723.552 792.872 722.549Z" fill="#FFD12D"/>
<path d="M1134.25 823.531C1140.69 827.556 1131.8 850.378 1129.39 856.641L1126.9 853.521C1124.88 843.49 1128.98 832.008 1134.25 823.531Z" fill="#FFD12D"/>
<path d="M293.502 1887.39C294.97 1888.51 311.268 1924.02 311.23 1924.69C302.242 1918.06 287.841 1898.39 293.502 1887.39Z" fill="#FFD12D"/>
<path d="M1354 1891.52L1357.14 1891.54L1358.04 1893.27L1356.54 1895.6C1346.79 1901.19 1339.72 1902.37 1328.98 1904.08L1326.12 1902.74L1326.84 1901.02C1334.11 1897.19 1345.84 1894.03 1354 1891.52Z" fill="#FFD12D"/>
<path d="M741.654 728.517C745.126 728.24 746.48 727.693 749.454 729.341L748.79 731.049C740.339 735.955 732.041 737.691 722.627 739.58C717.586 740.383 719.069 741.112 715.514 739.484C719.638 734.526 735.144 730.486 741.654 728.517Z" fill="#FFD12D"/>
<path d="M861.669 1536.98C867.452 1541.21 868.026 1568.28 867.286 1575.57C860.048 1569.54 859.116 1546.03 861.669 1536.98Z" fill="#FFD12D"/>
<path d="M650.614 1243.62C657.565 1250.05 655.607 1272.97 654.142 1282.05C647.557 1279.32 649.231 1250.11 650.614 1243.62Z" fill="#FFD12D"/>
<path d="M671.226 837.164L674.445 838.816C678.347 845.236 675.362 861.932 673.714 869.21C665.476 861.709 669.322 846.796 671.226 837.164Z" fill="#FFD12D"/>
<path d="M854.161 1391.77C855.987 1396.16 855.412 1417.78 854.914 1423.63C854.595 1427.47 854.25 1426.82 851.71 1428.63C847.778 1418.38 847.651 1400.88 854.161 1391.77Z" fill="#FFD12D"/>
<path d="M1150.58 779.117C1154.12 785.92 1144.5 803.705 1141.02 810.789C1134.34 801.045 1143.8 786.257 1150.58 779.117Z" fill="#FFD12D"/>
<path d="M882.502 1025.41L884.2 1027.31C887.059 1039.51 882.668 1053.17 878.417 1064.7L876.757 1064C875.008 1057.14 880.702 1033.64 882.502 1025.41Z" fill="#FFD12D"/>
<path d="M449.648 764.984L452.16 766.14C453.141 773.149 440.212 787.959 435.255 794.905L433.605 793.562C433.771 785.627 444.243 771 449.648 764.984Z" fill="#FFD12D"/>
<path d="M852.669 1334.35C857.418 1340.2 855.95 1365.82 853.077 1372.98C847.448 1366.8 849.516 1341.99 852.669 1334.35Z" fill="#FFD12D"/>
<path d="M540.396 1879.61L541.573 1881.99C538.072 1892.93 528.102 1899.45 518.584 1904.95C518.057 1904.34 518.426 1904.88 517.412 1902.48C522.901 1895.28 533.332 1885.5 540.396 1879.61Z" fill="#FFD12D"/>
<path d="M924.818 1763.47C934.061 1769.52 943.112 1785.5 948.588 1795.19C937.239 1792.51 928.457 1773.73 924.818 1763.47Z" fill="#FFD12D"/>
<path d="M1308.85 1904.68C1310.55 1904.59 1309.56 1904.46 1311.65 1905.63L1310.32 1908.02C1302.22 1912.67 1295.23 1913.18 1286.25 1913.74L1283.13 1913.06L1282.51 1911.24C1286.42 1906.77 1302.58 1905.52 1308.85 1904.68Z" fill="#FFD12D"/>
<path d="M658.736 1075.21C664.603 1080.16 660.456 1104.93 659.004 1112.51C654.872 1104.52 654.203 1083.07 658.736 1075.21Z" fill="#FFD12D"/>
<path d="M1189.17 1913.53C1195.45 1913.67 1208.33 1913.57 1213.19 1916.7L1212.42 1918.61L1208.37 1920.12C1202.03 1920.42 1189.57 1921.15 1184.9 1917.04C1186.01 1914 1185.1 1915.42 1189.17 1913.53Z" fill="#FFD12D"/>
<path d="M1393.35 1873.43C1394.47 1874.35 1393.73 1873.63 1395.08 1876L1393.92 1879.31C1387.83 1885.56 1380.51 1887.69 1372.36 1890.04L1371.25 1888.23C1373.6 1882.57 1387.6 1876.4 1393.35 1873.43Z" fill="#FFD12D"/>
<path d="M204.889 834.121C206.221 834.518 205.423 834.171 207.044 835.594C205.294 839.854 191.183 853.226 187.095 857.397C185.567 857.02 186.524 857.394 184.65 855.52C185.031 847.163 198.22 838.37 204.889 834.121Z" fill="#FFD12D"/>
<path d="M289.828 1777.31C292.005 1783.81 288.701 1807.17 283.757 1812.49C278.967 1804.12 285.377 1785.39 289.828 1777.31Z" fill="#FFD12D"/>
<path d="M880.777 1640.55L882.807 1641.61C887.518 1647.48 890.454 1669.75 890.939 1677.55C883.024 1673.11 881.786 1649.55 880.777 1640.55Z" fill="#FFD12D"/>
<path d="M579.994 1814.42L581.168 1815.62C581.919 1823.55 572.346 1840.62 567.47 1847.18C562.682 1841.05 576.353 1820.65 579.994 1814.42Z" fill="#FFD12D"/>
<path d="M464.187 884.438L466.764 886.508C469.442 894.812 466.015 909.512 464.441 918.265L463.121 918.475L461.847 916.822C461.033 905.769 461.635 895.219 464.187 884.438Z" fill="#FFD12D"/>
<path d="M186.019 616.066L186.715 617.54C184.088 622.976 172.492 636.198 167.778 640.736C160.917 631.845 179.737 619.826 186.019 616.066Z" fill="#FFD12D"/>
<path d="M897.618 929.523L900.146 931.957C902.776 940.669 898.129 953.841 895.754 962.797L894.261 962.882C891.261 957.349 895.971 936.084 897.618 929.523Z" fill="#FFD12D"/>
<path d="M1350.27 495.36C1357.72 495.028 1380.67 493.28 1381.71 502.502C1372.89 501.266 1357.63 500.761 1349.79 497.621L1350.27 495.36Z" fill="#FFD12D"/>
<path d="M639.244 1523.2C642.162 1530.38 638.006 1563.77 636.097 1572.17C631.453 1563.3 637.306 1533.63 639.244 1523.2Z" fill="#FFD12D"/>
<path d="M1238.41 489.887C1245.37 489.347 1265.08 490.15 1271.62 492.117L1270.68 493.229C1262.94 493.982 1247.45 497.672 1240.51 494.867C1238.82 494.188 1239 492.328 1238.41 489.887Z" fill="#FFD12D"/>
<path d="M856.776 1488.73C862.47 1493.3 860.504 1514.88 859.483 1522.07L857.389 1520.51C853.432 1512.79 854.747 1497.11 856.776 1488.73Z" fill="#FFD12D"/>
<path d="M854.164 1442.45L856.526 1443.79C859.372 1450.63 856.704 1465.58 855.67 1473.14C849.594 1464.66 850.156 1451.72 854.164 1442.45Z" fill="#FFD12D"/>
<path d="M906.576 878.762C912.32 886.495 906.359 904.201 902.925 912.518C902.478 912.069 901.661 910.395 901.316 909.748C901.75 899.357 902.976 888.568 906.576 878.762Z" fill="#FFD12D"/>
<path d="M464.526 833.621C472.374 839.783 467.574 856.237 464.838 864.404L462.695 863.309C462.052 854.995 462.831 841.817 464.526 833.621Z" fill="#FFD12D"/>
<path d="M1486.17 1799.2L1487.43 1801.05C1485.7 1810.6 1479.34 1817.16 1470.85 1821.44C1470.03 1820.24 1470.54 1821.11 1469.88 1818.58C1474.12 1810.82 1479.85 1805.29 1486.17 1799.2Z" fill="#FFD12D"/>
<path d="M867.746 1586.94C875.763 1591.22 876.912 1611.31 877.882 1620.02C871.371 1615.46 868.512 1594.87 867.746 1586.94Z" fill="#FFD12D"/>
<path d="M167.786 867.332L169.169 869.002C168.125 875.796 157.693 884.945 152.653 889.978C150.637 888.403 151.365 889.431 150.602 886.807C154.715 878.448 160.906 873.417 167.786 867.332Z" fill="#FFD12D"/>
<path d="M362.926 753.006C367.369 752.622 367.687 752.343 372.096 753.579L372.576 755.192C369.383 758.454 366.58 758.426 362.031 759.298C357.51 759.959 353.536 761.26 349.752 759.218L350.132 757.119C354.464 753.77 357.291 753.91 362.926 753.006Z" fill="#FFD12D"/>
<path d="M654.562 1196.26C657.563 1202.22 657.586 1222.94 653.491 1228.06C649.633 1218.35 650.534 1205.78 654.562 1196.26Z" fill="#FFD12D"/>
<path d="M621.67 1656.05C622.722 1656.99 622.842 1657.65 623.562 1659C623.722 1669.1 623.113 1678.87 619.403 1688.39L617.487 1686.46C616.344 1675.92 619.154 1666.28 621.67 1656.05Z" fill="#FFD12D"/>
<path d="M596.431 1771.03C601.736 1776.75 592.88 1795.19 589.69 1801.75C588.495 1801.12 589.267 1801.64 587.979 1799.55C589.198 1789.28 592.475 1780.47 596.431 1771.03Z" fill="#FFD12D"/>
<path d="M1117.7 909.051C1123.49 914.227 1120.95 931.826 1118.14 938.512L1115.96 936.334C1114.57 925.563 1115.67 919.413 1117.7 909.051Z" fill="#FFD12D"/>
<path d="M1123.6 865.746L1126.37 868.09C1128.96 876.347 1125.91 885.377 1123.85 893.795C1122.06 892.4 1122.51 892.608 1121.24 890.573C1120.3 881.768 1121.61 874.331 1123.6 865.746Z" fill="#FFD12D"/>
<path d="M1308.85 741.633C1316.27 741.053 1334.38 739.269 1335.77 748.141C1328.7 747.598 1315.21 746.408 1308.75 744.031L1308.85 741.633Z" fill="#FFD12D"/>
<path d="M286.12 1824.55L287.517 1826.38C288.695 1832.9 289.418 1839.3 288.043 1845.83L285.649 1846.64C281.167 1836.74 277.358 1832.81 286.12 1824.55Z" fill="#FFD12D"/>
<path d="M1268.28 740.385C1275.52 739.851 1282.49 739.617 1289.21 742.697L1288.94 744.048L1286.58 744.747C1279.98 745.903 1272.32 747.216 1265.92 745.166L1265.36 743.102L1268.28 740.385Z" fill="#FFD12D"/>
<path d="M1513.32 1761.97L1515.54 1764.4C1515.09 1771.41 1505.81 1779.56 1500.78 1784.76L1499.52 1784.36L1498.79 1782.39C1502.52 1774.97 1508.15 1768.55 1513.32 1761.97Z" fill="#FFD12D"/>
<path d="M701.363 760.926C711.393 762.525 718.55 768.787 718.337 779.243C711.29 777.146 704.703 767.064 701.363 760.926Z" fill="#FFD12D"/>
<path d="M645.564 1355.69C653.294 1360.12 648.947 1379.46 647.652 1387.38L646.756 1386.47C644.788 1380.94 644.67 1361.81 645.564 1355.69Z" fill="#FFD12D"/>
<path d="M677.05 797.879C677.799 798.264 679.044 799.389 679.76 799.976C681.431 808.7 679.678 814.908 677.685 823.422C676.997 822.813 675.737 821.11 675.107 820.317C673.087 811.226 674.76 806.823 677.05 797.879Z" fill="#FFD12D"/>
<path d="M1399.22 502.787C1408.44 500.456 1422.57 502.993 1429.71 509.798C1418.82 508.712 1408.8 508.331 1399.22 502.787Z" fill="#FFD12D"/>
<path d="M388.907 749.284C395.283 748.396 406.732 747.391 412.016 751.303L410.537 753.186C404.619 753.776 393.229 755.745 388.713 752.413L388.907 749.284Z" fill="#FFD12D"/>
<path d="M685.752 762.496L686.775 763.455C689.365 769.065 684.958 782.127 683.208 788.308C677.121 780.163 681.343 770.45 685.752 762.496Z" fill="#FFD12D"/>
<path d="M240.669 807.344L243.299 808.005C241.013 814.062 230.595 819.585 224.853 823.143C223.129 822.827 223.988 823.209 222.459 821.654C225.345 815.859 234.911 810.73 240.669 807.344Z" fill="#FFD12D"/>
<path d="M1427.76 736.175C1431.13 735.724 1430.9 735.777 1434.17 736.828L1433.59 738.592C1427.65 742.225 1424.64 742.51 1417.97 743.884C1413.87 743.761 1412.34 744.536 1410.04 742.451C1414.87 739.312 1422.04 737.794 1427.76 736.175Z" fill="#FFD12D"/>
<path d="M47.2673 876.07L49.4158 878.487C51.1724 887.145 50.9298 896.531 50.123 905.291C43.532 898.978 45.9026 884.231 47.2673 876.07Z" fill="#FFD12D"/>
<path d="M644.685 1409.66L646.486 1411.57C648.013 1421.44 646.774 1432.74 645.6 1442.62C641.331 1435.3 642.729 1417.8 644.685 1409.66Z" fill="#FFD12D"/>
<path d="M641.068 1462.18C645.206 1467.74 643.337 1493.21 643.015 1501.32L641.706 1500.28C638.982 1495 640.725 1469.67 641.068 1462.18Z" fill="#FFD12D"/>
<path d="M207.731 595.113C210.32 595.148 210.343 595.37 212.909 596.046L213.571 598.079C210.781 602.086 206.413 604.301 202.221 606.952C199.817 607.367 200.078 607.186 197.578 606.947L197.266 605.345C200.235 600.619 203.412 598.584 207.731 595.113Z" fill="#FFD12D"/>
<path d="M286.233 1861.09C287.629 1861.48 289.422 1862.3 290.814 1862.86C294.302 1867.53 294.366 1872.26 295.304 1878.17C285.233 1874.23 285.569 1871.41 286.233 1861.09Z" fill="#FFD12D"/>
<path d="M891.296 979.562L892.624 981.696C893.3 991.307 891.513 995.673 887.99 1004.67L886.266 1002.75C885.858 994.767 888.666 987.018 891.296 979.562Z" fill="#FFD12D"/>
<path d="M1472.23 1569.55C1473.24 1569.49 1475.71 1569.82 1476.82 1569.94L1477.81 1571.67C1475.42 1575.55 1472.34 1576.95 1468.45 1579.41C1465.4 1579.86 1466.92 1579.9 1463.92 1578.64L1463.82 1576.68C1466.11 1572.31 1467.89 1571.89 1472.23 1569.55Z" fill="#FFD12D"/>
<path d="M912.808 832.777L913.816 833.699C915.565 840.167 913.05 852.908 911.748 859.62L910.229 858.703C909.093 851.211 911.327 840.327 912.808 832.777Z" fill="#FFD12D"/>
<path d="M1031.43 1869.43C1038.31 1870.9 1043.71 1872.97 1043.48 1880.63C1038.24 1878.37 1033.89 1877.17 1030.72 1872.69L1031.43 1869.43Z" fill="#FFD12D"/>
<path d="M556.819 1857.78C561.538 1863.44 553.717 1870.15 549.729 1873.97L548.105 1872.09C549.673 1866.59 553.362 1862.49 556.819 1857.78Z" fill="#FFD12D"/>
<path d="M1456.81 1827.05C1458.57 1828.78 1458.38 1828.8 1459.73 1830.93C1458.79 1835.51 1454.55 1838.11 1450.78 1841.28C1449.99 1841.22 1449.33 1840.67 1448.61 1840.32C1449.7 1836.11 1454.13 1830.77 1456.81 1827.05Z" fill="#FFD12D"/>
<path d="M1156.33 1912.17C1161.06 1912.27 1165.64 1911.85 1169.64 1914.17L1170.15 1917.58C1165.41 1917.64 1158.52 1918.61 1155.29 1915.04L1156.33 1912.17Z" fill="#FFD12D"/>
<path d="M1002.32 1850.34C1009.39 1851.74 1014.15 1856.31 1018.86 1861.51C1011.78 1862.02 1005.65 1855.99 1002.32 1850.34Z" fill="#FFD12D"/>
<path d="M1178.83 937.695C1198.71 945.81 1235.6 959.295 1249.48 975.392C1252 978.326 1252.45 981.963 1251.66 985.651C1246.27 1010.65 1203.75 1106.56 1188.9 1121.54C1170.34 1140.32 1114.26 1175.87 1092.51 1191.66C1127.73 1178.85 1162.76 1153.12 1196.38 1135.47C1201.03 1137.26 1201.9 1136.12 1205.29 1139.49C1197.4 1153.35 1196.24 1161.84 1213.48 1168.12C1221.84 1171.16 1231.31 1173.45 1239.81 1169.29C1246.97 1165.78 1249.77 1159.93 1252.35 1152.73L1252.9 1151.17L1254.57 1150.62C1263.68 1152.21 1274.22 1158.08 1282.49 1162.38C1273.7 1172.78 1264.85 1183.11 1255.92 1193.4C1233.88 1190.15 1162.91 1160.81 1154.45 1164.18L1154.05 1165.9C1161.38 1178.35 1238.5 1203.5 1255.56 1202.41C1265.83 1201.76 1274.48 1190.91 1280.61 1183.9C1314.9 1203.61 1346.41 1223.67 1379.98 1244.44C1377.91 1256.67 1372.31 1283.12 1364.49 1292.62C1362.77 1292.9 1357.13 1293.5 1356.03 1294.56C1341.67 1308.41 1316.85 1333.84 1328.18 1355.46C1336.44 1371.23 1356.39 1382.7 1372.82 1387.84C1386.75 1375.12 1417.89 1341.33 1402.06 1321.39C1396.18 1313.95 1378.28 1296.29 1368.34 1303.96C1373.24 1312.99 1416.29 1317.75 1394.7 1346.96C1387.84 1356.23 1381.15 1364.76 1373.74 1373.68C1324.67 1355.7 1324.9 1328.08 1364.56 1297.91C1367.8 1298.9 1367.83 1299.06 1371.17 1299C1382.51 1286.42 1388.71 1251.77 1388.61 1234.08C1401.03 1240.29 1442.12 1263.36 1446 1275.54C1450.74 1290.41 1430.85 1336.16 1424.23 1350.53C1403.99 1394.49 1348.73 1453.99 1302.02 1469.56C1290.04 1462.9 1265.19 1442.33 1257.38 1430.18C1295.24 1413 1311.63 1401.41 1334.7 1365C1315.73 1377.5 1300.79 1395.83 1281.11 1407.47C1273.03 1412.26 1264.35 1416.57 1255.96 1420.86C1242.35 1400.81 1183.44 1360.15 1159.64 1351.41C1183.39 1394.52 1238.98 1412.7 1151.7 1448.41C1131.32 1456.74 1110.38 1466.55 1089.01 1474.45C1085.07 1475.69 1085.18 1475.84 1081.12 1475.73C1077.09 1473.11 1075.99 1472.54 1071.6 1470.53L1069.54 1471.41C1069.35 1475.08 1076.93 1485.47 1079.67 1496.2C1087.03 1525.19 1086.37 1536.63 1086.66 1565.87L1088.51 1566.7C1094.19 1563.68 1096.32 1556.37 1098.29 1550.6C1135.92 1539.74 1183.57 1519.13 1215.24 1496.41C1234.19 1520.17 1255.02 1539.47 1278.05 1559.33C1283.34 1563.9 1295.79 1568.33 1301.7 1572.73C1304.42 1574.75 1305.81 1579.55 1307.85 1583.15C1318.33 1584.94 1333.86 1572.03 1341.43 1582.13C1337.09 1592.37 1293.4 1653.17 1284.87 1664.19C1227.88 1737.8 1090.53 1810.82 998.322 1821.65C969.791 1786.15 928.494 1639.07 917.183 1593.75C932.681 1591.83 946.902 1589.42 962.272 1586.76C959.566 1600.61 959.438 1611.96 959.068 1625.92C954.523 1629.39 946.672 1634.29 946.889 1640.32C947.451 1655.84 951.229 1687.96 961.276 1699.63C974.961 1706.7 1034.16 1702.4 1045.77 1689.86C1052.08 1683.07 1047.83 1629.96 1039.01 1623.35C1033.54 1622.57 1031.55 1622.84 1027.61 1619.42C1024.53 1613.24 1026.02 1582.44 1026.18 1573.85C1032.43 1571.3 1046.12 1565.16 1052.07 1564.6C1052.9 1567 1053.75 1569.39 1054.63 1571.78C1058.23 1572.95 1056.47 1573 1060.07 1571.39C1071.81 1556.39 1055.92 1507.9 1050.25 1491.91C1048.24 1486.23 1046.49 1479.43 1039.8 1479.39C1038.2 1482.81 1039.11 1484.18 1039.56 1488.61C1034.33 1491.63 1023.94 1493.65 1017.87 1495.62C980.055 1507.87 942.817 1511.37 904.264 1518.77C902.209 1487.1 898.724 1461.71 900.856 1429.4C907.992 1321.85 947.706 1219.92 1000.84 1127.1C1009.51 1111.96 1019.55 1092.7 1029.05 1078.51C1043.14 1072.96 1066.01 1067.19 1081.17 1062.42C1114.63 1052.01 1148.28 1041.99 1179.98 1026.68C1197.65 1018.17 1232.94 1004.28 1235.32 981.423C1235.7 977.697 1235.01 976.844 1232.71 974.417L1230.39 974.524C1231.14 978.002 1231.09 976.858 1230.9 980.445C1222.9 990.03 1182.23 1007.7 1169.65 1013.47C1173.29 989.162 1175.89 962.276 1178.83 937.695Z" fill="#1F1E20"/>
<path d="M1095.27 1179.39L1097.19 1179.74C1091.73 1182.36 1067.07 1195.62 1064.18 1196.44C1044.23 1202.04 1033.12 1203.65 1013.27 1211.93C1032.75 1227.34 1063.73 1250.36 1079.65 1268C1070.56 1282.94 1047.92 1297.89 1033.86 1309.96C990.421 1347.3 927.614 1414.11 907.47 1468.22L907.01 1469.46C904.457 1461.61 913.252 1436.37 917.12 1428.85C950.911 1363.04 1006.03 1314.48 1062.09 1268.01C1044.99 1252.78 1026 1239.57 1008.56 1224.8C1003.12 1220.19 999.293 1216.01 1002.19 1209.01C1010.9 1201.1 1080.34 1183.34 1095.27 1179.39Z" fill="#FFD12D"/>
<path d="M1365.75 1319.54C1395.29 1317.9 1391.78 1344.03 1372.23 1356.24C1369.83 1356.18 1367.43 1356.19 1365.08 1355.59C1360.27 1354.36 1356.17 1351.2 1353.75 1346.85C1347.11 1334.79 1355.24 1324.98 1365.75 1319.54Z" fill="#FFD12D"/>
<path d="M1366.86 1325.6C1382.28 1329.47 1382.45 1338.02 1372.17 1348.29C1354.72 1346.78 1356.66 1335.2 1366.86 1325.6Z" fill="#1F1E20"/>
<path d="M1175.03 1200.71L1176.04 1202.26C1159.33 1235.44 1155.04 1274.76 1160.09 1311.04C1161.23 1319.2 1164.27 1341.6 1163.46 1347.93C1146.97 1304.98 1147.26 1239.2 1175.03 1200.71Z" fill="#FFD12D"/>
<path d="M1184.55 130.181C1204.26 128.044 1246.7 137.655 1246.68 160.912C1244.05 164.749 1241.76 164.965 1237.56 166.429C1245.8 170.148 1268.24 169.222 1278.9 170.903C1294.44 173.352 1308.99 177.987 1319.01 191.267C1321.89 195.079 1327.85 210.095 1326.29 214.123C1324.07 219.855 1306.11 206.442 1296.37 211.524C1300.17 215.765 1316.18 219.017 1321.72 223.399C1354.71 249.443 1352.35 281.658 1315.31 300.708C1313.74 289.71 1311.83 272.746 1300.13 268.001C1299.42 270.439 1302.15 274.548 1302.81 277.246C1317.01 334.752 1277.24 338.502 1237.53 340.429C1238.22 334.26 1239.37 328.041 1237.49 322.23C1233.57 323.365 1224.85 345.858 1219.57 353.092C1192.7 389.852 1158.47 367.553 1121.57 372.428C1123.6 367.969 1125.77 364.436 1125.55 359.603C1120.19 360.701 1110.98 375.65 1107.86 379.824C1077.18 420.702 1038.4 408.423 997.228 397.474C986.901 394.729 968.697 395.786 957.782 397.35C960.348 393.616 960.718 393.057 962.544 388.951L961.714 387.145C956.71 389.223 939.948 406.496 933.77 411.52C898.958 439.849 865.013 439.206 824.699 423.241C809.47 417.208 791.445 407.789 775.347 410.512C731.892 417.864 718.008 446.772 668.31 442.011C625.398 437.9 623.325 412.126 582.517 412.314C544.919 412.487 521.947 436.371 485.498 432.618C452.847 429.254 430.308 404.918 411.06 380.85C413.574 388.031 415.771 392.578 419.053 399.411C397.702 405.161 375.33 412.181 353.12 409.191C321.621 404.95 312.295 378.772 296.018 356.93C296.364 366.118 296.518 368.124 298.909 377.028C247.144 381.602 213.075 373.773 229.824 311.81C217.796 323.039 216.582 326.867 214.218 342.6C196.442 334.453 183.672 321.109 185.781 300.4C189.116 267.629 218.365 259.53 238.836 242.582C229.398 244.94 221.744 249.285 212.778 250.816C210.429 249.608 208.449 249.257 208.098 245.771C207.235 237.214 212.343 228.433 216.011 221.652C224.496 205.965 248.866 199.66 265.46 198.128C273.236 197.41 281.895 198.268 289.867 196.407L290.334 194.549L285.242 192.409L284.919 190.559C293.742 173.365 303.371 161.694 322.402 155.618C330.917 152.9 360.005 145.329 363.011 156.624C361.779 161.424 352.473 174.903 349.156 180.461C337.238 184.046 328.095 187.035 318.313 195.361C307.961 204.173 284.664 226.388 283.174 239.648L284.675 241.312C294.578 239.38 309.418 219.91 315.515 212.272C335.655 188.063 353.042 191.004 381.645 183.691C400.11 178.97 421.02 171.981 439.746 169.807C492.55 163.679 572.3 175.854 620.071 199.131C598.245 222.168 585.712 239.721 569.102 266.505C564.687 264.501 560.189 262.684 555.621 261.059C507.994 244.331 444.01 234.796 393.888 241.114C370.467 244.065 351.998 253.868 327.372 248.143C318.136 245.995 293.283 259.93 284.314 264.244C284.263 263.772 284.211 263.299 284.16 262.827L283.855 260.473C282.039 245.749 271.635 226.501 254.072 231.293C273.938 244.715 276.959 254.108 272.745 277.297C260.057 274.847 245.236 272.626 233.559 279.807L234.322 281.189C264.336 289.796 272.238 277.168 292.865 310.774C288.334 312.442 276.224 316.758 274.936 321.175C288.81 328.973 336.703 285.393 373.119 342.472C367.064 345.383 362.489 348.068 356.761 351.452C390.834 348.052 422.157 323.349 459.682 340.42C473.717 346.805 481.524 355.753 496.569 362.124L498.29 362.835L498.741 364.323C495.036 365.977 493.661 366.005 491.197 368.868C505.283 378.172 546.285 349.919 573.117 348.447C617.868 345.991 644.908 372.509 681.367 376.6C698.973 378.576 733.897 349.594 767.522 348.054C813.606 345.941 833.891 368.83 872.328 367.87C903.043 367.104 927.259 328.3 970.305 332.584C991.254 334.669 1002.05 339.285 1022.72 343.573C1059.77 351.255 1062.49 333.392 1085.87 316.757C1116.42 295.036 1157.86 313.149 1190.26 320.4C1182.8 312.249 1179.73 311.023 1169.68 307.347C1186.42 282.536 1204.39 268.866 1236.82 273.04C1247.27 274.385 1253.4 277.514 1263.55 274.583L1263.56 272.965C1258.48 268.986 1254.36 267.5 1248.52 264.868C1267.93 228.377 1272.83 245.192 1294.54 233.671L1294.44 232.13C1282.86 227.359 1273.34 230.582 1262.53 234.343C1253.83 195.761 1274.19 206.201 1276.7 188.501C1265.44 187.138 1255.47 205.229 1251.1 213.62C1241.95 206.937 1235.37 207.531 1233.61 196.385C1233.37 194.902 1231.86 189.901 1231.06 188.731C1211.63 160.284 1188.14 144.408 1157.07 135.051C1166.17 133.117 1175.34 131.493 1184.55 130.181Z" fill="#1F1E20"/>
<path d="M420.433 222.168C456.633 219.716 517.533 228.303 549.92 243.96L515.219 235.527C465.508 224.615 425.492 226.254 376.035 228.809C393.501 224.096 402.209 223.277 420.433 222.168Z" fill="#FFD12D"/>
<path d="M1261.53 353.867C1266.09 353.256 1269.43 351.827 1272.65 355.227C1273.07 360.858 1256.88 395.871 1254.69 403.3C1237.95 460.076 1208.68 479.148 1156.9 500.844C1133.4 510.697 1112.34 517.691 1086.46 522.246C1079.29 523.948 1058.61 536.114 1045.09 539.352C1023.13 544.608 1010.06 542.909 989.008 545.347C976.548 546.79 957.042 554.942 941.481 557.204C922.23 560.002 904.83 558.215 886.818 560.069C872.15 561.579 854.342 566.532 838.283 568.421C818.891 570.701 804.224 567.641 786.211 568.393C768.25 569.584 750.531 573.345 732.455 573.101C724.961 573 717.677 572.524 710.221 571.804C701.017 571.657 684.881 567.294 676.238 568.195C637.04 572.285 607.602 569.163 569.274 560.864C551.686 557.056 522.045 562.251 503.017 557.577C494.282 556.638 480.325 549.341 472.235 548.504C438.493 545.011 412.743 541.053 382.435 524.461C377.542 521.782 360.992 517.75 354.28 515.447C313.841 501.575 295.916 455.194 278.768 419.908L266.32 394.034C278.893 393.352 288.918 392.253 301.314 390.699C339.358 440.974 371.246 423.028 420.003 413.781L421.647 413.481C428.183 419.015 433.463 425.033 440.768 430.227C499.613 472.082 538.376 427.588 590.807 420.394C636.197 453.799 678.355 473.426 733.131 443.161C743.599 437.381 764.127 422.862 775.667 423.654C814.194 427.74 832.819 450.223 874.831 449.927C920.622 449.604 934.562 422.405 968.429 407.952C981.425 402.409 1031.77 426.767 1054.06 423.593C1077.13 420.308 1093.85 416.998 1111.12 397.303C1123.05 380.319 1138.52 386.691 1156.67 389.202C1191.86 394.069 1216.74 386.915 1235.44 354.497C1244.69 354.553 1252.31 354.43 1261.53 353.867Z" fill="#1F1E20"/>
<path d="M1206.69 389.793C1208.97 399.26 1180.88 472.238 1174.65 484.956C1172.68 471.235 1196.66 401.529 1206.69 389.793Z" fill="#FFD12D"/>
<path d="M1117.55 393.621C1120.33 404.819 1096.36 473.891 1090.36 487.509C1088.26 472.961 1110.1 408.239 1117.55 393.621Z" fill="#FFD12D"/>
<path d="M539.652 444.648C548.401 451.603 563.775 527.207 565.535 539.915C556.544 530.961 541.56 460.662 539.652 444.648Z" fill="#FFD12D"/>
<path d="M778.652 527.155C776.125 512.422 769.167 451.26 775.78 438.074C780.606 443.049 780.682 513.989 781.04 525.668L778.652 527.155Z" fill="#FFD12D"/>
<path d="M431.023 431.801C439.63 437.665 460.166 513.657 463.858 527.311C452.739 514.216 434.261 450.593 431.023 431.801Z" fill="#FFD12D"/>
<path d="M337.057 426.465C348.545 433.703 368.91 495.05 373.854 510.49C364.951 505.199 339.916 439.308 337.057 426.465Z" fill="#FFD12D"/>
<path d="M999.616 426.484C1000.32 427.047 1001.24 428.346 1001.85 429.106C1003.56 449.071 992.722 496.464 987.348 516.701L986.531 516.065C984.706 505.066 996.335 438.918 999.616 426.484Z" fill="#FFD12D"/>
<path d="M897.513 457.324C900.998 467.961 892.662 513.38 889.241 525.839C887.275 515.039 890.581 466.445 897.513 457.324Z" fill="#FFD12D"/>
<path d="M653.536 466.445C658.427 471.522 666.243 524.573 667.568 534.835C662.396 524.246 652.968 478.911 653.536 466.445Z" fill="#FFD12D"/>
<path d="M778.649 527.147L781.037 525.66C781.177 530.298 781.969 536.157 779.977 540.089C778.062 536.983 778.56 531.041 778.649 527.147Z" fill="#1F1E20"/>
<path d="M730.613 919.276C770.621 917.778 810.667 918.215 850.611 920.587C832.446 1010.51 822.501 1089.65 812.008 1180.21C795.246 1317.37 786.144 1457.55 807.438 1594.77C811.906 1623.56 819.131 1653.09 826.663 1681.21C831.82 1700.41 839.786 1719.42 845.748 1738.51C843.45 1740.11 840.539 1739.36 837.029 1739.31C787.459 1734.3 719.386 1735.69 670.252 1742.74C690.824 1644.93 703.328 1545.57 707.638 1445.71C709.785 1398.01 711.411 1350.28 712.518 1302.55L723.066 992.307C723.475 982.796 724.285 924.828 726.096 920.097L730.613 919.276Z" fill="#1F1E20"/>
<path d="M464.279 1478.71L491.827 1483.52C481.255 1497.54 461.539 1557.37 475.383 1570.7C483.203 1570.66 473.984 1568.81 481.504 1565.86C509.889 1577.08 558.161 1584.78 588.172 1589.39C578.875 1636 563.722 1689.03 550.53 1734.59C542.743 1761.48 532.228 1796.65 520.112 1821.32C456.832 1807.3 411.565 1795.17 352.949 1768.54C307.077 1748.59 240.116 1705.38 207.52 1667.62C243.514 1613.76 275.704 1566.99 308.998 1511.01C331.609 1513.34 339.365 1508.63 360.916 1520.56C384.348 1533.53 409.996 1544.71 435.278 1553.44C438.787 1559.15 444.644 1567 452.428 1564.43C452.401 1560.9 450.241 1559.93 447.102 1556.42C447.504 1531.29 451.94 1500.91 464.279 1478.71Z" fill="#1F1E20"/>
<path d="M529.107 1622.08C560.495 1623.23 561.088 1662.14 532.921 1671.89C528.288 1671.55 524.523 1671.39 520.279 1669.36C514.581 1666.6 510.3 1661.59 508.469 1655.52C506.508 1648.69 507.338 1641.35 510.776 1635.14C515.414 1626.76 520.53 1624.68 529.107 1622.08Z" fill="#FFD12D"/>
<path d="M532.534 1631.16C534.2 1631.39 537.863 1631.95 539.36 1632.88C542.387 1634.75 544.588 1637.7 545.509 1641.13C548.466 1651.75 541.037 1659.91 531.221 1662.68C511.229 1657.57 511.806 1637.17 532.534 1631.16Z" fill="#1F1E20"/>
<path d="M427.865 1170.68C411.8 1158.65 382.126 1137.9 367.981 1123.24C353.068 1107.78 293.752 1006.33 303.574 989.405C314.707 970.215 383.217 943.221 407.122 936.945C403.623 964.378 401.154 1002.5 400.023 1030.09C386.144 1024.65 371.092 1018.92 357.683 1012.59C342.898 1005.6 329.385 997.613 314.149 991.281C335.185 1029.51 419.294 1049.91 459.62 1065.16C468.654 1068.58 494.284 1075.24 498.849 1082.07C512.554 1102.57 528.01 1136.27 538.376 1158.27C578.621 1243.66 610.286 1334.07 609.006 1429.55C608.66 1455.39 605.407 1484.27 603.093 1510.34C575.475 1505.92 530.337 1501.87 503.025 1492.27C498.594 1490.73 501.977 1485.02 495.446 1480.96C479.738 1471.18 464.069 1471.86 447.389 1474.92C492.335 1434.6 519.476 1388.26 511.801 1326C550.291 1370.84 583.22 1407.8 605.806 1464.23C599.324 1409.78 570.576 1373.62 536.604 1332.28C528.997 1322.07 513.982 1310.37 507.507 1300.07C496.784 1282.99 491.56 1270.3 478.751 1254.12C490.828 1243.11 512.981 1225.23 523.251 1214.12C533.005 1203.56 459.284 1176.53 452.074 1174.33C476.246 1193.98 483.575 1196.58 512.014 1208.75C498.013 1221.05 482.834 1233.46 468.364 1245.23C442.181 1222.1 414.079 1212.36 380.5 1206.09L378.545 1206.63C367.238 1204.41 348.991 1206.13 336.999 1205.9C324.367 1205.66 312.605 1203.33 300.312 1202.62C286.205 1201.79 276.172 1203.17 264.749 1202.28C264.749 1202.8 156.302 1271.96 138.098 1331.27C137.091 1334.56 128.897 1343.54 126.871 1347.7C118.494 1364.93 128.354 1384.21 132.282 1401.36C135.435 1416.34 136.86 1428.43 141.797 1443.09C110.342 1403.23 103.894 1356.94 115.854 1307.92C127.602 1259.78 173.484 1216.57 214.668 1192.19C230.649 1182.74 247.941 1175.25 264.229 1165.66C266.976 1169.45 272.861 1178.22 277.005 1179.95C292.395 1186.34 372.066 1162.3 377.178 1149.61C370.936 1146.03 345.356 1155.68 337.835 1158.19C317.744 1164.91 300 1169.45 278.749 1171.06C273.843 1160.57 270.316 1155.29 263.925 1145.71L263.541 1145.13C272.124 1142.35 281.442 1138.75 289.995 1135.64C295.193 1154.66 308.244 1153.89 325.628 1149.27C331.66 1147.67 336.609 1143.3 340.624 1138.56C341.972 1132.67 340.786 1132.83 338.56 1126.22C342.004 1123.87 346.542 1123.75 350.969 1123.06C377.961 1148.13 395.498 1155.86 427.865 1170.68Z" fill="#1F1E20"/>
<path d="M565.235 1444.96C594.742 1444.97 596.322 1480.81 568.769 1492.53C563.269 1492.05 560.048 1491.75 555.227 1488.85C549.288 1485.28 545.045 1479.45 543.463 1472.7C541.932 1466.36 543.181 1459.64 546.898 1454.27C552.048 1446.89 556.964 1446.1 565.235 1444.96Z" fill="#FFD12D"/>
<path d="M560.704 1453.39C568.031 1450.4 576.394 1453.83 579.526 1461.1C582.658 1468.35 579.41 1476.79 572.215 1480.07C567.426 1482.25 561.828 1481.67 557.583 1478.56C553.337 1475.45 551.11 1470.29 551.757 1465.05C552.404 1459.83 555.828 1455.36 560.704 1453.39Z" fill="#1F1E20"/>
<path d="M351.641 1221.7C386.931 1218.93 419.49 1230 448.142 1250.12C509.839 1293.43 509.654 1373.73 466.258 1430.24C437.306 1467.95 401.03 1486.99 354.775 1494.35C312.633 1496.69 266.841 1489.03 233.456 1462.91C178.877 1420.2 206.464 1321.62 245.443 1277.22C277.458 1240.76 304.998 1226.59 351.641 1221.7Z" fill="#1F1E20"/>
<path d="M719.127 136.234C753.543 145.715 777.594 155.278 807.198 175.282C736.757 217.777 676.529 276.203 639.948 350.465C631.146 347.197 621.778 344.316 612.809 341.413C580.804 332.312 558.317 337.053 528.508 349.375C539.971 332.274 554.586 311.541 565.074 294.353C587.274 257.975 605.151 226.271 638.005 197.617C664.523 174.487 691.72 158.776 719.127 136.234Z" fill="#1F1E20"/>
<path d="M765.75 184.812L766.018 185.003C765.801 186.148 711.147 228.016 700.091 238.901C673.792 264.796 655.814 296.435 636.884 327.722L635.945 327.518C636.686 321.684 649.337 302.048 652.728 295.961C677.938 250.722 719.869 209.158 765.75 184.812Z" fill="#FFD12D"/>
<path d="M711.884 60.731C712.695 60.5574 713.949 60.2434 714.703 60.3621C760.207 67.5364 811.142 76.1699 851.048 100.099C884.532 120.176 920.072 149.661 948.833 175.281C929.544 184.914 910.587 194.681 894.081 208.701C889.958 212.203 883.689 218.399 878.813 220.146L876.988 218.163C874.664 215.413 872.251 212.747 869.749 210.165C851.699 191.917 807.184 161.663 784.385 149.505C749.279 130.793 673.282 112.718 632.668 112.843C656.35 91.6483 683.045 74.0865 711.884 60.731Z" fill="#1F1E20"/>
<path d="M671.693 100.499C725.435 99.8285 795.323 131.637 838.586 163.218C832.535 161.935 810.795 148.42 804.297 144.45C762.081 118.644 718.297 112.377 671.693 100.499Z" fill="#FFD12D"/>
<path d="M1020.77 159.195C1035.39 160.601 1078.88 207.02 1088.18 219.933C1016.54 235.699 952.306 275.163 905.864 331.948C883.856 310.656 859.626 292.591 836.725 272.401C874.626 235.003 918.285 197.351 967.88 178.038C981.909 172.578 1011.6 165.394 1020.77 159.195Z" fill="#1F1E20"/>
<path d="M1017.75 226.723L1019.67 227.316C1011.36 233.663 994.277 241.581 984.256 248.089C960.588 263.445 943.265 278.978 922.304 297.65L921.104 297.781C922.623 293.989 927.716 289.275 930.665 286.225C955.022 261.091 985.213 239.744 1017.75 226.723Z" fill="#FFD12D"/>
<path d="M1069.77 210.445L1071.56 210.618L1071.4 211.897C1064.53 214.63 1060.47 215.055 1053.24 216.306C1051.61 216.163 1052.26 216.515 1051.24 215.31C1056.66 212.677 1063.74 211.672 1069.77 210.445Z" fill="#A3A4AA"/>
<path d="M996.242 85.2869C1018.65 82.9533 1032.47 93.5936 1052.08 103.038C1100.07 126.155 1143.03 160.454 1172.5 205.171C1185.35 224.696 1196.09 244.952 1212.33 262.04C1191.88 266.677 1180.89 273.14 1168.83 290.228C1166.06 294.171 1163.09 298.796 1159.46 301.83C1156.94 300.321 1153.11 297.488 1151.52 294.907C1112.77 231.475 1072.38 168.232 1002.31 135.852C980.769 125.904 960.28 115.196 939 106.07C958.417 95.2199 974.31 89.9017 996.242 85.2869Z" fill="#1F1E20"/>
<path d="M1044.15 142.137C1061.14 146.206 1099.43 186.678 1106.91 202.694C1102.94 199.022 1097.59 192.689 1093.85 188.515C1078.44 171.347 1061.76 156.979 1044.15 142.137Z" fill="#FFD12D"/>
<path d="M1131.03 237.719C1140.98 243.643 1155.24 269.232 1159.07 280.658C1155.18 277.383 1134.27 243.548 1131.03 237.719Z" fill="#FFD12D"/>
<path d="M960.268 100.281C967.901 100.876 968.004 101.274 974.552 105.652C967.34 105.025 966.344 104.184 960.268 100.281Z" fill="#1F1E20"/>
<path d="M708.93 16.6314C742.398 14.16 774.044 14.3145 805.997 24.5168C794.558 26.8734 777.554 35.3639 770.125 36.343C687.095 47.2807 624.777 96.4735 571.385 158.496L561.603 170.216C528.736 161.595 514.942 159.77 481.719 157.801C488.248 149.38 495.004 141.134 501.979 133.077C543.198 85.8868 599.701 43.0795 660.406 22.9275C672.845 18.7991 695.329 17.5467 708.93 16.6314Z" fill="#1F1E20"/>
<path d="M656.553 60.7539C657.037 61.0105 656.714 60.7463 657.48 62.153C644.882 71.4848 632.612 79.4314 621.271 90.7674C599.162 112.862 579.353 135.834 555.055 155.823L554.293 154.828C561.47 145.494 574.076 134.36 582.363 125.389C605.679 100.157 625.632 77.5626 656.553 60.7539Z" fill="#FFD12D"/>
<path d="M735.529 26.602C738.529 26.265 738.388 26.3123 741.35 27.0029C737.354 29.8624 704.445 39.2516 697.078 41.5099C693.74 42.6588 695.249 42.826 692.357 42.0294C704.752 33.9832 721.163 29.6582 735.529 26.602Z" fill="#FFD12D"/>
<path d="M815.326 787.709C834.27 786.924 854.249 786.477 873.155 787.742C869.44 822.958 859.572 868.538 852.985 904.408C829.1 902.875 808.547 901.788 784.548 901.457C765.093 901.445 745.638 901.578 726.182 901.854C729.566 863.599 729.77 831.916 735.974 793.332C762.616 790.461 788.556 789.085 815.326 787.709Z" fill="#1F1E20"/>
<path d="M1456.14 1312.5C1462.91 1316.22 1474.03 1329.23 1478.48 1335.69C1496.21 1360.98 1502.99 1392.34 1497.29 1422.68C1486.63 1478.22 1438.13 1507.36 1383.68 1496.45C1365.08 1491.33 1349.2 1482.3 1333.96 1470.71C1344.98 1463.42 1363.51 1451.73 1372.72 1443.24C1412.6 1406.43 1438.13 1362.63 1456.14 1312.5Z" fill="#1F1E20"/>
<path d="M737.983 237.742C766.476 253.937 794.969 259.902 827.241 280.502C856.627 299.253 879.823 323.611 906.401 339.13C888.363 353.423 876.21 356.987 853.666 355.329C820.883 342.748 791.037 331.956 755.37 336.601C729.047 317.88 712.219 311.486 682.279 302.439C702.057 275.762 713.66 260.98 737.983 237.742Z" fill="#1F1E20"/>
<path d="M706.025 296.922C726.236 300.127 755.827 315.765 771.261 330.352C769.589 330.112 712.782 300.735 706.025 296.922Z" fill="#FFD12D"/>
<path d="M151.319 1356.05C167.663 1358.67 162.517 1375 152.555 1382.74C131.931 1379.94 141.339 1364.8 151.319 1356.05Z" fill="#FFD12D"/>
<path d="M928.839 33.2358C945.473 30.5576 979.149 41.5208 995.043 46.262C1022.13 54.3338 1037.07 64.3153 1056.36 84.295C1053.97 83.3171 1051.57 82.4197 1049.13 81.6052C1006.15 67.3038 973.928 75.7712 934.673 95.7969C919.431 103.189 910.584 108.384 896.491 117.603C870.206 96.2041 851.734 87.5285 821.824 73.3253C853.611 52.1738 890.606 36.3085 928.839 33.2358Z" fill="#1F1E20"/>
<path d="M977.544 62.4086C985.893 61.4933 992.697 61.8023 1001.07 61.9937C961.779 69.0494 948.49 72.5433 911.941 91.1354C904.729 95.2983 899.916 97.4659 892.346 100.819C920.813 80.5692 943.294 68.5719 977.544 62.4086Z" fill="#FFD12D"/>
<path d="M411.443 248.751C444.011 247.55 456.628 249.442 488.411 254.609C483.208 260.221 478.331 268.21 473.522 273.733C455.668 294.245 448.279 295.573 439.673 322.511L419.717 322.372C404.203 324.736 394.541 329.03 380.103 334.869C372.422 322.264 367.319 315.753 354.484 308.384C365.792 290.066 383.741 268.046 397.733 251.73C402.087 250.476 406.964 249.648 411.443 248.751Z" fill="#1F1E20"/>
<path d="M468.018 258.723L468.778 260.304C453.334 276.538 444.001 288.172 432.713 307.35L431.752 306.981C435.833 291.931 454.264 266.433 468.018 258.723Z" fill="#FFD12D"/>
<path d="M495.375 256.184C521.793 262.99 537.453 263.165 566.113 272.99C550.483 303.613 533.023 317.122 518.391 355.045C493.714 355.746 489.095 344.028 468.383 332.482C460.651 328.171 455.792 326.497 447.465 323.797C455.489 299.43 462.282 302.131 476.77 284.628C479.772 281.001 490.595 262.833 495.375 256.184Z" fill="#1F1E20"/>
<path d="M545.447 275.575C549.191 275.386 549.088 275.231 552.611 276.344C550.499 279.148 537.539 284.071 533.099 286.026C533.302 295.201 533.402 304.378 533.395 313.554C529.983 306.898 526.582 301.105 522.794 294.67C502.334 282.711 488.679 287.064 473.023 304.537C470.046 308.852 464.792 319.874 461.992 320.955C458.816 304.462 481.948 281.197 498.652 281.948C510.155 282.466 512.653 280.598 523.327 286.686C532.059 279.58 534.485 277.523 545.447 275.575Z" fill="#FFD12D"/>
<path d="M493.57 1502.27C522.375 1512.49 576.784 1519.15 607.983 1523.21C607.84 1539.73 605.199 1563.6 596.71 1578.04C559.392 1572.71 516.585 1563.98 480.971 1552.23C484.052 1532.3 485.61 1520.64 493.57 1502.27Z" fill="#1F1E20"/>
<path d="M1034.56 246.887L1036.85 247.005C1049.68 256.998 1075.94 288.301 1086.71 301.839C1069.44 312.746 1067.37 318.391 1052.56 330.86C1044.96 337.272 1036.02 335.326 1026.93 333.773C1016.88 331.529 1008.98 329.13 999.127 326.057C992.566 311.788 978.83 298.755 967.902 287.445C985.813 271.936 1013.16 256.793 1034.56 246.887Z" fill="#1F1E20"/>
<path d="M986.732 288.797C996.485 293.007 1009.35 312.079 1013.89 321.552C1006.9 317.059 992.375 296.382 986.732 288.797Z" fill="#FFD12D"/>
<path d="M1199.63 1435.72C1205.09 1443.95 1211.14 1473.38 1213.53 1484.2C1197.18 1490.61 1181.82 1500.67 1166.14 1508.93C1145.39 1519.62 1123.91 1528.82 1101.85 1536.48L1099.22 1536.61C1096.95 1532.93 1089.84 1494.15 1088.16 1486.37C1128.51 1474.81 1163.97 1457.5 1199.63 1435.72Z" fill="#1F1E20"/>
<path d="M1016.57 1515.82L1018.59 1516.14C1019.88 1520.65 1017.22 1531.76 1016.45 1536.93C1011.25 1572.04 1013.61 1606.95 1016.19 1642.15C972.004 1643.69 960.489 1634.48 973.599 1682.2C985.42 1681.2 1017.79 1679.03 1026.95 1673.58C1032.4 1664.2 1020.96 1639.15 1026.55 1631.63L1030.57 1631.98C1034.63 1634.9 1033.42 1634.32 1035.35 1640.2C1036.85 1651.89 1038.18 1672.16 1037.63 1683.61C1018.69 1688.07 987.386 1690.38 967.612 1691.12C962.825 1678.88 955.574 1654.34 957.4 1641.21C961.51 1637.27 961.408 1640.06 968.812 1637.86C971.876 1630.81 970.817 1602.64 974.825 1588.13C981.399 1564.37 994.816 1529.07 1016.57 1515.82Z" fill="#1F1E20"/>
<path d="M812.94 179.387C830.646 189.113 857.888 212.312 873.667 225.4L829.037 268.982L814.816 260.928C795.183 250.834 766.753 240.084 745.779 231.588C769.319 215.719 791.761 198.279 812.94 179.387Z" fill="#1F1E20"/>
<path d="M802.841 193.509C806.85 193.047 806.888 192.866 810.781 193.658C811.433 197.249 798.373 205.542 797.16 213.437C796.088 220.311 800.186 223.999 804.475 229.796C816.398 223.09 824.99 219.026 838.164 224.7L838.547 226.381C833.977 228.953 822.781 230.304 816.041 232.053C807.667 237.339 806.033 245.595 801.373 246.943L800.454 245.46C800.403 223.071 792.335 226.911 772.14 226.045L771.629 224.831C774.718 220.69 784.79 219.945 790.19 219.054C790.535 217.024 790.905 214.998 791.288 212.976C793.522 201.488 793.509 199.8 802.841 193.509Z" fill="#FFD12D"/>
<path d="M624.798 120.521C644.559 119.736 690.242 129.637 710.234 133.664C685.704 147.371 666.162 161.017 644.047 178.406L628.335 191.859C606.715 182.184 596.171 178.674 573.297 172.75C584.993 158.385 610.081 132.12 624.798 120.521Z" fill="#1F1E20"/>
<path d="M630.041 131.335C645.02 130.286 647.691 131.595 662.096 136.349C667.292 132.538 671.143 130.86 677.861 131.374L679.328 133.193L678.829 135.406C672.867 136.354 672.313 135.827 669.571 140.77C668.884 147.122 671.386 151.487 673.781 157.573C661.715 148.035 659.006 143.05 643.708 138.797C642.075 138.727 640.44 138.693 638.804 138.693C602.389 138.869 613.864 163.548 604.91 172.724L602.915 172.162C591.339 151.67 611.919 136.243 630.041 131.335Z" fill="#FFD12D"/>
<path d="M991.192 1516.49L992.494 1516.26L994 1517.36C991.945 1524.57 983.188 1535.83 979.218 1543.69C973.55 1554.91 970.537 1562.7 966.426 1574.6C951.771 1576.72 914.253 1582.73 901.359 1580.76C896.981 1571.42 891.517 1548.84 894.811 1538.7C902.827 1529.73 973.728 1519.69 991.192 1516.49Z" fill="#1F1E20"/>
<path d="M1091.6 227.078C1100.27 233.799 1133.99 284.473 1141.12 295.857C1123.07 295.127 1114.44 295.338 1096.63 298.229C1094.97 297.368 1095.45 297.841 1094.31 296.318C1079.66 276.624 1063.88 259.991 1046.08 243.199C1060.76 237.222 1076.55 232.635 1091.6 227.078Z" fill="#1F1E20"/>
<path d="M1083.8 240.785C1087.61 241.212 1087.62 241.029 1091 242.68C1089.06 245.627 1079.44 249.345 1075.1 251.603C1073.09 252.787 1073.62 252.431 1071.22 252.923L1070.64 250.979C1074.7 244.476 1076.55 243.253 1083.8 240.785Z" fill="#FFD12D"/>
<path d="M378.109 253.93C381.388 253.244 381.614 252.884 384.787 253.661C381.069 259.249 374.933 265.16 370.507 271.065C362.061 282.339 354.594 293.644 346.786 305.353C327.9 300.817 322.328 301.59 303.521 305.922C294.571 293.735 289.136 289.142 277.805 279.034C283.131 274.044 286.575 271.922 292.568 267.979L295.493 267.019C298.42 272.959 287.591 285.376 294.908 293.617C297.604 291.619 298.437 288.305 298.848 284.857C300.497 271.035 311.981 258.278 326.525 257.931C342.371 257.553 344.52 270.412 353.882 279.067L354.947 278.066C354.914 268.631 353.544 267.213 347.975 259.312L378.109 253.93Z" fill="#1F1E20"/>
<path d="M678.344 309.309C684.887 312.603 698.368 317.128 705.944 320.521C720.015 326.824 730.191 332.425 743.365 340.046C729.131 344.994 721.479 347.768 708.896 355.886C688.368 369.531 671.195 367.414 650.664 354.688C659.096 338.39 668.147 324.422 678.344 309.309Z" fill="#1F1E20"/>
<path d="M685.305 321.059C688.854 321.24 691.113 320.928 693.928 323.012C681.71 330.587 679.117 332.254 678.313 346.3C676.507 347.739 677.633 347.283 674.748 347.052C666.487 337.828 676.363 325.718 685.305 321.059Z" fill="#FFD12D"/>
<path d="M928.113 110.414C929.989 110.51 1009.76 151.105 1015.76 154.397C1003.06 155.955 993.167 158.532 981.116 162.44L958.202 171.047C949.84 163.437 942.334 154.474 933.308 147.054C923.147 138.693 912.896 131.271 903.092 122.461C911.083 118.347 919.943 114.313 928.113 110.414Z" fill="#1F1E20"/>
<path d="M947.354 125.32C959.353 132.881 953.341 134.615 956.596 138.652C958.511 138.064 960.426 137.491 962.34 136.932C967.357 135.419 971.238 132.95 974.378 137.906C970.421 139.193 969.17 139.135 965.06 139.652C961.728 143.245 956.838 150.492 953.787 154.704C951.107 144.594 949.345 135.611 947.354 125.32Z" fill="#FFD12D"/>
<path d="M555.573 54.8704C560.086 54.3113 571.043 54.2232 576.024 54.0547C554.221 67.6374 535.181 82.0755 517.747 100.923C491.092 99.336 483.462 100.402 458.406 108.681L440.844 114.218C462.853 84.5942 519.866 58.8929 555.573 54.8704Z" fill="#1F1E20"/>
<path d="M435.271 1483.94C440.155 1483.12 448.321 1485.5 446.174 1492.48C441.221 1508.6 437.559 1524.43 435.974 1541.24C422.196 1536.34 409.948 1531.27 396.472 1525.64C384.504 1520.95 375.007 1516.39 364.158 1509.6C387.322 1505.51 414.702 1495.3 435.271 1483.94Z" fill="#1F1E20"/>
<path d="M1135.85 145.906C1172.3 147.067 1184.66 154.542 1212.09 180.518C1216.14 184.346 1224.96 195.825 1224.79 201.13C1208.05 197.596 1198.98 196.178 1181.99 200.56C1169.29 180.24 1153.75 161.837 1135.85 145.906Z" fill="#1F1E20"/>
<path d="M1181.46 183.917C1188.12 183.276 1205.01 182.681 1210.43 186.136L1209.6 187.375C1204.07 187.281 1183.72 187.691 1180.22 185.542L1181.46 183.917Z" fill="#FFD12D"/>
<path d="M497.67 109.825C501.166 109.722 505.602 108.848 507.752 110.459C496.189 123.121 478.518 141.592 472.047 157.236C447.314 158.402 432.626 162.751 411.608 164.529L410.5 162.33C421.979 140.189 429.655 133.479 454.424 132.462C459.888 135.72 463.018 138.042 469.229 139.594L470.609 138.721C469.993 136.556 469.431 134.375 468.925 132.182C464.865 114.176 484.165 111.295 497.67 109.825Z" fill="#1F1E20"/>
<path d="M1187.56 207.258C1194.29 207.129 1206.9 206.941 1212.93 209.661C1210.22 214.122 1205.36 221.438 1206.06 226.538L1207.99 227.351C1228.31 200.356 1242.97 210.246 1254.23 237.826C1246.71 248.772 1245 246.616 1240.41 261.222L1221.07 261.037C1211.31 242.312 1198.13 226.225 1187.56 207.258Z" fill="#1F1E20"/>
<path d="M1040.4 1500.26L1042.38 1500.79C1048.71 1507.59 1052.9 1540.61 1054.47 1551.11L1039.31 1557.04L1026.13 1561.88C1026.29 1546.45 1027.12 1524.75 1031.09 1509.95C1032.88 1503.29 1034.83 1503.39 1040.4 1500.26Z" fill="#1F1E20"/>
<path d="M960.743 292.824C965.339 295.615 982.088 317.425 986.428 322.919C961.982 320.608 948.195 320.283 925.74 330.122C918.667 333.63 910.612 337.135 903.361 340.476C922.969 323.116 939.425 307.984 960.743 292.824Z" fill="#1F1E20"/>
<path d="M425.231 127.199L426.693 127.633C425.629 129.173 425.794 129.308 424.142 130.154C411.281 136.749 404.111 153.9 400.729 167.97L365.846 176.434C365.195 176.02 365.65 176.419 364.402 174.455C373.447 151.495 403.181 134.908 425.231 127.199Z" fill="#1F1E20"/>
<path d="M798.851 44.2847C811.259 43.6681 819.85 49.2965 830.05 55.341C824.293 58.9206 814.016 68.0915 809.778 69.5889C798.212 65.4719 785.676 62.6661 773.715 59.7031C782.779 49.6003 786.532 47.9318 798.851 44.2847Z" fill="#1F1E20"/>
<path d="M1086.79 100.507C1106.49 99.6847 1116.29 104.672 1128.16 122.519C1130.36 125.821 1132.43 130.072 1131.44 134.078L1127.85 134.967L1125.84 134.53C1119.56 133.201 1089.57 110.634 1081.58 105.192L1081.77 103.811L1086.79 100.507Z" fill="#1F1E20"/>
<path d="M814.091 30.5545C830.98 28.1584 852.835 32.6647 869.673 35.8128C862.294 39.5289 854.431 43.1492 846.95 46.7338L835.512 52.2154C821.712 39.9616 816.082 39.2148 798.887 34.7392L798.861 34.0103C803.891 32.3354 808.882 31.5554 814.091 30.5545Z" fill="#1F1E20"/>
<path d="M1013.73 1652.04L1014.81 1652.07C1017.44 1655.26 1018.53 1662.95 1019.52 1667.37C1004.76 1669.93 995.44 1670.66 980.543 1671.75C977.083 1668.46 975.538 1660.32 974.236 1655.53C987.423 1654.68 1000.6 1653.5 1013.73 1652.04Z" fill="#1F1E20"/>
<path d="M1218.61 1140.86C1225.98 1141.9 1242.39 1145.34 1241.56 1154.72C1238.37 1158.5 1237.04 1158.66 1232.51 1160.48C1224.56 1160.13 1206.89 1159.63 1208.67 1148.3C1211.61 1144.16 1213.99 1143.4 1218.61 1140.86Z" fill="#1F1E20"/>
<path d="M775.719 44.7141L777.941 44.6094L778.413 45.7455C775.005 50.5429 772.196 54.8322 769.069 59.8147C761.064 58.99 749.805 56.7802 741.609 55.4232C738.546 55.1679 738.941 55.0607 735.941 54.0254C741.367 48.5565 767.422 45.6817 775.719 44.7141Z" fill="#1F1E20"/>
<path d="M319.911 1127.05C324.926 1127.54 332.097 1127.52 332.697 1133.17C326.811 1139.43 321.138 1139.98 312.852 1141.93C307.287 1142.1 303.115 1142.99 299.467 1138.36L300.289 1135.65C307.325 1128.85 310.217 1128.91 319.911 1127.05Z" fill="#1F1E20"/>
<path d="M1132.52 114.98C1140.69 118.85 1148.4 128.93 1153.68 136.232C1137.49 136.953 1138.57 128.595 1132.52 114.98Z" fill="#1F1E20"/>
<path d="M1044.99 87.6562C1050.78 88.5933 1067.65 95.1535 1075.23 97.4692L1076.17 100.119L1072.13 101.026C1064.02 98.0131 1051.66 92.8966 1044.99 87.6562Z" fill="#1F1E20"/>
<path d="M455.968 118.374C459.099 118.045 458.021 117.935 461.127 119.116L460.177 120.868C453.52 123.986 450.037 123.954 442.799 124.822L439.021 125.398L439.176 124.26C446.464 120.457 448.178 120.137 455.968 118.374Z" fill="#1F1E20"/>
</svg>
